<svg xmlns="http://www.w3.org/2000/svg" viewBox="0 0 500 500"><g id="freepik--Water--inject-4"><g id="freepik--water--inject-4"><path d="M117.31,169.88C-9.66,214.65,14.89,316,43,352,78.1,396.81,156.9,452.48,255.94,461.24,419,475.68,414.39,408.29,386,367.92c-23.2-33,29.39-45.69,55.2-54.63,19.71-6.83,35-19.16,39.43-37.44,7.53-31.21-15.79-73.9-97.51-100.19C275.39,141,195.74,142.23,117.31,169.88Z" style="fill:#A3D2CA"></path><path d="M117.31,169.88C-9.66,214.65,14.89,316,43,352,78.1,396.81,156.9,452.48,255.94,461.24,419,475.68,414.39,408.29,386,367.92c-23.2-33,29.39-45.69,55.2-54.63,19.71-6.83,35-19.16,39.43-37.44,7.53-31.21-15.79-73.9-97.51-100.19C275.39,141,195.74,142.23,117.31,169.88Z" style="fill:#fafafa;opacity:0.7000000000000001"></path><g style="opacity:0.1"><path d="M63.77,204.24a85.59,85.59,0,0,0,13.14-1.06c2.7-.43,5.62-1.07,7.39-2.41,2.62-2,1.71-4.61,0-6.59a46.58,46.58,0,0,0-6.52-5.88q-4,2.43-7.63,5a16.65,16.65,0,0,0,1.69,2.36c.34.36.68.74.55,1.14-.24.7-1.93,1.37-3.86,1.77a49.84,49.84,0,0,1-6.22.71l-.23,0q-3,2.38-5.71,4.83C58.86,204.15,61.31,204.25,63.77,204.24Z" style="fill:#fff"></path><path d="M432.93,209.51a5,5,0,0,1-3-1.46c-4.38-4.35-7.35-8.91-12.4-13.15s-12.43-8.19-23.93-10.51c-13.48-2.73-32.85-3.4-39.2-8.31-3.66-2.85-1.79-6.52-2.65-9.73-16.37-4.41-32.1-7.93-47.29-10.59a53,53,0,0,0-14.23,9.13c-2.73,2.54-5.87,5.67-10.74,6-5,.29-7.69-2.68-10.66-4.76-5.94-4.14-17.15-5.34-26.74-2.91-4.19,1.08-8.12,2.79-12.51,3.22a22.47,22.47,0,0,1-11.8-2c-2.58-1.24-3.54-2.71-5.82-4a39.51,39.51,0,0,1-6.27-4.22,22.45,22.45,0,0,1-4.52-5.18q-9.39.92-18.6,2.34a37.39,37.39,0,0,1,5.41.81c6.87,1.62,12,4.83,16.55,8.12s8.84,6.79,14.8,9.26c5,2.09,12.18,3.29,18.12,1.16,2.77-1,4.8-2.54,7.42-3.64,8.1-3.44,19.42-1.28,23.47,3.28s2.29,10.53-1.31,15.82a50,50,0,0,1-11.46,11.53c-4.51,3.34-10.05,6.57-11.91,10.52-2.36,4.91,1.48,9.56,1.31,14.46a3.92,3.92,0,0,1-2.44,3.67,13.5,13.5,0,0,1-4.25.85l-18.2,1.66c-3.49.34-7.21.64-10.22-.18-2.86-.78-4.5-2.47-6.15-4-9.36-8.82-23.24-15.82-39.76-20-3.95-1-8.21-1.92-10.69-3.92s-2.17-5.49,1.85-7c3.11-1.18,7.47-.88,11-1.67,4.63-1,4.38-2.4,3.59-3.81-2.08-3.77-5.33-7.39-8.19-11.06-3.1-4-6.68-8.17-5-12.54a18.2,18.2,0,0,1,8.12-10q-10.11,2.12-20.09,4.83c-.89,1-2.4,2-5.36,2.22a13.62,13.62,0,0,1-2.4,0q-6,1.77-12,3.75l.67.45c8.9,6.3,13.56,14.68,13,23.4-.12,1.92-.47,3.9.39,5.68.7,1.49,2.22,2.81,2.22,4.4.07,2.62-3.9,4.94-7.47,6.86L121,214.8c-7.88,4.21-16.59,9.52-15.58,15.15.54,3.11,4.08,5.57,8.06,7.48a11.54,11.54,0,0,1,3.82,2.34c.84,1,.71,2.38-.85,3.24-2.51,1.37-6.07.36-8.95-.26a30.52,30.52,0,0,0-14.83.84,27.38,27.38,0,0,1-4.3,1.26,11.12,11.12,0,0,1-7.6-1.54c-1.81-1.21-2.82-2.74-4.18-4.13-4.91-5-14.38-8.28-24.91-8.48l-3.09-.09a57.8,57.8,0,0,1-12.48-2.86,100.42,100.42,0,0,0-15.37,46.13,16.72,16.72,0,0,0,2.16-1.25,14,14,0,0,0,5.76-8.17,20.76,20.76,0,0,0,.38-10.07c-.73-3.48-2.36-7.06,0-10.54,2.84-4.13,10.92-6.85,18.27-7A43.43,43.43,0,0,1,66.71,241a26.37,26.37,0,0,1,8.52,5.65c4.53,5,3.31,11.88-3,17.1-5.37,4.45-13.77,7.53-19.18,12-9.42,7.75-7.59,17.56-13.36,26.23a6.26,6.26,0,0,1-3.53,2.79,6.89,6.89,0,0,1-6.84-1.76c-1.21-1.44-1.38-3.17-2.71-4.55A10.21,10.21,0,0,0,21.22,296q.48,4.07,1.22,8a18,18,0,0,1,4,3.13c2.74,3,3.61,6.58,4.41,10.08s1.64,7.07,4.37,10.09,7.75,5.43,14,5.47c3.37,0,7-.64,10,0s4.58,2.41,4.93,4.28-.39,3.8-1.12,5.71c-1.07,2.78-2,5.79,0,8.14s6.38,3.41,8.33,5.66c2.39,2.69.29,6.7-4.55,8.69a9.27,9.27,0,0,1-2.31.63,14.73,14.73,0,0,1-3-.18,22.73,22.73,0,0,0-6.35.29q2.48,2.63,5.11,5.27a15.25,15.25,0,0,1,6.51.32c2.6.68,4.77,1.82,7.5,2.42a9.75,9.75,0,0,0,4,.14,4.69,4.69,0,0,0,4-3.83c.11-1.53-.51-3,.06-4.53,1.28-3.57-.89-7.19,3.56-10,3.16-2,8.06-2.82,12.37-2.68a57.52,57.52,0,0,1,12.07,2l25.27,6.17c6.07,1.48,12.81,3.48,13.52,7.39.7,3.72-4.55,7.79-3.07,11.36,1.09,2.69,5.67,4.18,10.22,5s9.56,1.16,13.37,2.68c5.74,2.31,7.62,7,5.68,11.34s-7.18,8.21-13.37,11.15A38.89,38.89,0,0,1,148.18,414a26,26,0,0,1-21.3-8.43c-4.19-4.69-6.82-10.14-13.62-13.58-7.8-4-19.48-4.5-30.22-5.48-2.35-.21-4.73-.49-7.07-.83,2.84,2.41,5.78,4.82,8.82,7.2a106.71,106.71,0,0,1,13.12,2.62c20.77,5.88,18.22,18,37.82,24.32,3,1,6.61,1.81,9,3a10.69,10.69,0,0,1,4.73,4.36,17.86,17.86,0,0,1,2.79,6.53c9.65,4.37,19.72,8.38,30.17,11.92a31,31,0,0,1,4.78-1.23c5.31-1,10.49-1.09,15.13-2.65a53.68,53.68,0,0,0,10.73-5c3.22-1.9,6.32-4,10.45-5.14a32.28,32.28,0,0,1,12.75-.43c7.5,1.12,13.62,3.8,20.1,6s14,4.07,22,3.3c5.25-.51,10.54-2.11,15.61-1.79a20,20,0,0,1,12.51,5.66c2.94,2.65,5.65,5.6,10.53,7.05,4.48,1.33,10.29,1.21,14.56,2.72,3.74,1.32,5.72,3.72,6.2,6.36,4.82-.73,9.31-1.61,13.49-2.61a15.85,15.85,0,0,0-1.14-1.34c-2.86-3-7.28-5.79-7.77-9a2,2,0,0,1,1.23-2.18c1.48-.81,4.14-1.29,6.4-1.89,6.23-1.65,9.39-4.29,10.69-6.76s1.14-4.94,2.59-7.42c1.26-2.15,4.67-4.6,10.94-5.39a38.27,38.27,0,0,1,11.72.51c3.37.65,6.1,1.58,9.31,2.29.75.17,1.52.33,2.32.47a38.88,38.88,0,0,0,2-5.42c-1.74-.35-3.43-.76-5-1.22-8-2.29-16.16-5.87-25.48-4.07-8.68,1.66-13.69,7.18-17.05,12.1s-7.18,10.47-15.33,13.08a31.83,31.83,0,0,1-16.52.48c-4.58-1.14-8.2-2.92-10.3-4.91-1.77-1.69-2.46-3.53-1.73-5.27.81-1.92,2.49-3.74,3.6-5.64a10.42,10.42,0,0,0,.86-9.85c-1.55-3.34-5-6.69-2.49-10.17s10.37-5.38,13.4-8.88c3.17-3.66,0-7.79,2.45-11.58s11.2-6.27,17.07-4.71,7.55,5.75,12.49,8c4.26,1.93,10.83,2.12,16.25.47,1.8-.55,3.42-1.25,5.27-1.65,6.62-1.42,12.23,1.62,16.68,4.19a48.94,48.94,0,0,0,5.37,2.72c-.66-2.38-1.45-4.76-2.36-7.11a69.83,69.83,0,0,1-7.87-4.53c-3.75-2.33-9.29-4.73-14.82-3.07-3.27,1-5.77,3.22-9.23,3.34a9.33,9.33,0,0,1-4.91-1.33c-4.32-2.34-7.19-5.56-8.06-9.12-1.59-6.43,3.14-13.44,1.85-19.92-1-5-5.46-9.3-11.81-12.35-2.35-1.15-5-2.15-6.73-3.66s-2.15-3.72,0-5.37c2.37-1.83,6.79-2.19,10.41-2s7.36.71,11-.08c4.54-1,9-4.76,11.21-6.67.3-3,.64-6.18,2.88-9.09s6.89-5.61,12.2-6a15.48,15.48,0,0,1,15,7.88A33,33,0,0,1,402,327.82c2.1-1.05,4.29-2.05,6.52-3-.86-2-.75-3.81,2.22-4.79,2.25-.75,3.77.42,5.15,1.86,1.95-.73,3.91-1.43,5.85-2.11a45.69,45.69,0,0,1-9-5.06c-4.56-3.19-8.76-5.93-12.19-9.61-3.83-2.89-11.55-3.75-18-2a37.05,37.05,0,0,1-4,1c-5.43.78-8.8-2.4-11.93-4.71-4.76-3.47-12.33-5.55-20.5-5.61-5.14,0-10.63.67-15.32-.22s-7.9-4.41-4.38-6.88c4.11-2.88,11.86-1.27,17.41-3.09,2.4-.79,4.26-2.19,6.82-2.72,3.54-.72,6.81.48,9.64,1.51a54,54,0,0,0,20.49,3.75c10.24-.29,20-4.06,28.77-7.84a21.82,21.82,0,0,1,5-1.7,18.29,18.29,0,0,1,5.33,0c13.46,1.66,21.26,8.86,27.84,15.58,4.18,4.26,8.39,8.7,9.23,13.76a62.3,62.3,0,0,0,7.88-5.6c-2.39-7.69-8.24-14.76-16.89-20.34a31.8,31.8,0,0,0-8.93-4.17c-6.05-1.69-13.92-1.68-18.58-4.38-6.34-3.68-3.69-10.29-.68-15.8a7.89,7.89,0,0,1,3-3.41c3.43-2.06,9-1.49,12.76-.23a25.28,25.28,0,0,1,7.57,4c2.21,1.74,3.8,3.8,6.29,5.4,4.78,3,12.94,4.06,20.44,2.65a17.25,17.25,0,0,0,6.13-2.2c1.59-1.08,2.38-2.47,3.86-3.63a10.26,10.26,0,0,1,1.57-1,56.56,56.56,0,0,0-2.79-11,10,10,0,0,1-1,2.23c-2.82,4.8-11.48,9.12-19.7,8.62-16.42-1-11.8-10.3-29.25-11.16-4-.2-8.23-.13-11.78-.64-5.25-.76-7.86-2.59-12.88-3.45-6-1-13.63-.71-20.62-.35-7.66.39-15.82.83-22.25-.2-3.52-.56-7.46-1.81-8.6-3.12-2.93-3.37-4.06-7.22-2.41-10.93a9.25,9.25,0,0,1,2.3-3.44c4-3.45,12.67-3.51,18.38-1.88s10.2,4.44,16.49,5.36c5.89.86,12.68-.09,18.54-1.94A72.71,72.71,0,0,0,421.57,218a24.23,24.23,0,0,1,6.23-2.95,22.91,22.91,0,0,1,7.73-.45,55.83,55.83,0,0,1,19.74,5.86,78.67,78.67,0,0,1,14,8.32,104.2,104.2,0,0,0-20.14-20.37C443.38,209.23,435.85,210,432.93,209.51ZM228.14,236.37a44.06,44.06,0,0,1,24,4.6c6.23,3.33,10.29,7.78,13.77,12.33,3.2,4.25,5.88,9.34,1.68,13.9S253.84,274.28,251,279c-2.06,3.35-.58,7.6-5.68,9.78-3,1.27-6.92,1.05-9.85.21s-5.21-2.23-7.93-3.25c-8.74-3.22-22.22-2.11-30.93,2.56-3.37,1.83-6.58,4.26-10.91,4.58a10,10,0,0,1-8.1-2.86c-1.55-1.71-3.07-4-4.79-5.69-2.36-2.35-8.42-5.53-10.62-8a10.49,10.49,0,0,1-2.14-5.4c0-2.15,1.67-4.55,3.53-6.58a14.67,14.67,0,0,1,5.39-4c4.92-2,11.07-1.1,16.25-.19s11.46,1.66,16.18-.53a8.34,8.34,0,0,0,5-6.3c.39-2.28.09-4.56,1.1-6.82C209.74,241.32,219,237.16,228.14,236.37ZM115.36,315.24c-5.18-2.17-10-4.83-11.89-8.47s.06-8.42,6-10.91c3.6-1.51,8.07-2,11.8-3.38,9.65-3.59,12.21-12.34,22.8-14.52,8.22-1.69,15.72,2,18.93,6.18s4.07,9.14,8.69,12.79a14.85,14.85,0,0,0,8.83,3.1c5.85.12,11.12-2.8,16.25-4.92,5.5-2.29,12.29-3.88,18.25-3.06,7.14,1,11,5,14.13,8.72.51.61,1,1.25.84,2a3.36,3.36,0,0,1-1.3,1.49c-4.06,3.11-10.5,4.94-16.76,6s-12.71,1.36-19,2.3c-11.34,1.73-22.2,5.47-30.64,10.56-1.42,1.56-2.38,3.43-4.42,4.78-4.1,2.74-11.41,2.59-16,.87s-7.43-4.56-11.18-6.81C126.23,319.24,120.55,317.41,115.36,315.24Zm53.85,14.68c-.29-3.62,3.28-7.71,9.15-9.61a48,48,0,0,1,9.5-1.71l15.48-1.74c6.92-.76,14-1.58,20.42-3.58s12.18-5.45,13.55-9.45c.78-2.29.59-5.15,4.16-6.43s7.44.29,10.48,1.55a54.38,54.38,0,0,0,17.1,3.82c4.26.32,8.8.23,12.73,1.06,6,1.25,9.94,4.7,9.85,8.54s-4.18,7.88-10.23,10c-4.62,1.65-9.94,2.16-15.06,2.65l-41.18,3.88c-7.88.74-16,1.54-23.17,4-3.05,1.07-5.82,2.42-8.9,3.44-4.68,1.55-7.57,2.64-12.53,2.42,0,0-1.74-.23-2.26-.36C172.79,337.07,169.5,333.56,169.21,329.92ZM84,257.22c.41-2.05,3.42-3.77,6.21-5.25,3.94-2.11,8.51-4.35,13.5-4.41,5.73-.08,9.91,2.75,15.62,2.79,6.56,0,13-4.55,11.19-8.08-1-2.12-4.18-3.48-6.67-5.06a16.43,16.43,0,0,1-6-6.17c-1.24-2.42-1.52-5.19.44-7.69,1.63-2.08,4.6-3.77,7.63-5.32a53.17,53.17,0,0,1,14.49-5.28c10.09-1.84,19.92.61,28.13,3.47a160.16,160.16,0,0,1,27.06,12.16c4.06,2.32,8.06,5,8.25,8.53.13,1.72-.69,3.48-1.25,5.22-.83,2.7-1,5.44-2.45,8.1a13.66,13.66,0,0,1-9.24,6.32c-7.48,1.55-14.1-2.12-21.74-1.77-5.32.24-10.64,2.69-12.43,5.72-1.26,2.16-.84,4.37-1.26,6.56a7.46,7.46,0,0,1-5.83,5.65c-2.42.62-5.07.37-7.61.71-8.82,1.19-12.39,8.49-21,10.49a6.61,6.61,0,0,1-2.21.19A2.06,2.06,0,0,1,117,282c-.29-4.25,1.53-9.37-3.75-12l-.36-.56A37.17,37.17,0,0,0,98,263.52a80,80,0,0,1-9.26-1.77C85.88,260.85,83.63,259.19,84,257.22ZM94.51,346c-1.65,2.82-6,5.47-11,5.76-5.68.33-9.81-2.38-11.68-5.28A10.72,10.72,0,0,1,71,336.28c1.09-2.63,3.09-5.51,1.13-7.72s-7.35-2.66-12-2.43S50.4,327,46.34,326c-5.47-1.39-7.23-5.25-7.79-8.81-.37-2.35-.32-4.94,2.16-7.07a55.25,55.25,0,0,1,4.67-3c7-4.66,6-11.08,7.12-16.84,1.43-7.4,7.76-15.23,18.9-19.75s27.27-4.61,34.3,1a10.56,10.56,0,0,1,4.11,8.14c.17,4.89-2.6,10-7.74,14.39-3.25,2.75-7.47,5.25-9.49,8.3-3.24,4.87,0,10,5.87,13.24s13.76,4.89,21.5,6.52c3.18.68,6.85,1.76,6.75,3.82-.06,1.73-3,3.27-6,3.89s-6.06.61-9.09.94c-6.38.69-12.61,3-16.64,6.16l-.55.75C95.55,340.24,96.16,343.15,94.51,346Zm25.28,7a37.08,37.08,0,0,1-10.6-3.41c-3.68-1.9-6.38-4.6-6.24-7.65s3.74-6.43,8.93-7.5c9.56-2,17,4.16,26.67,3.81,7.24-.26,14.84-4.08,21.27-2.67,6.84,1.5,6.41,7.85,13,9.67,4.19,1.17,9.79,0,14.14-1.74s8.05-4,12.57-5.55,12.39-3.41,16-2.63c2,.44,1.89,1.75,1.72,2.21-1.43,4.2-12.39,6.88-12.39,11,0,1.62,1.43,3,3,4.25,5.14,4.14,11.8,7.67,15.18,12.44s2.43,11.5-5.45,15.14c-7.61,3.52-18.28,2.59-25.14-.3s-11.07-7.35-16.4-11.16c-10.46-7.43-25.56-12.55-42.49-14.39C128.91,354,124.18,353.71,119.79,352.93Zm180.44,64a11.63,11.63,0,0,1-3.47,11.45c-5.67,5.61-18.52,8.73-28.11,6.83-9.82-1.94-14.83-8-24.16-10.52a42.1,42.1,0,0,0-20.43.2c-7.37,1.91-13.23,5.55-19.4,8.71s-13.72,6.11-21.37,5.93a34,34,0,0,1-8.83-1.5c-6.71-2-12.33-5.26-14.38-9.54s-.14-9.6,5.86-13.14c2.07-1.23,4.49-2.21,6.7-3.33,7.44-3.78,12.14-9.32,12.49-14.65s-3.73-10.34-10.75-13.24c-4.31-1.79-10.26-2.08-14.69-3.76-4.7-1.77-2.5-4.69-2.06-7.35a2.23,2.23,0,0,1,1-1.74c1.5-1,4.14-.67,5.92-.09,13.46,4.43,17.61,16,33.28,17.85,5.33.61,11.32-.05,16.29,1,5.9,1.29,9.05,4.74,12.44,7.78a20.74,20.74,0,0,0,14.83,5.84c7.93-.23,14.44-4.87,22.29-6.25,8.55-1.51,16.67,1.12,22.45,4.33C293.3,405.81,298.77,411,300.23,417Zm-8.93-47.69c2.86,3.35,5.82,6.77,10.67,9.16,4.09,2,9.43,3.24,12.77,5.67,5.14,3.78,3.82,10.27-2.92,14.21a17.7,17.7,0,0,1-8.16,2.45c-4,.08-6.91-1.54-9.49-3.06-4.29-2.55-8.59-5.1-12.84-7.65a14.82,14.82,0,0,0-6.16-2.37c-6.28-.68-11.74,3.51-17.65,5.7A30.39,30.39,0,0,1,242,394.75a32,32,0,0,1-11.09-4.34c-3.59-2.34-5.31-7.45-3-10.69s6.38-6.37,6.48-9.71c.06-1.77-.94-3.64.79-5.23,2.67-2.41,8.55-1.87,13.2-2.57,4.89-.75,8.9-3.13,13.64-4.25a29.23,29.23,0,0,1,18.66,2.12C285.53,362.51,288.45,365.93,291.3,369.27Zm41-26.52c6.49,4.69,10.16,10.72,10.46,17.09a12.79,12.79,0,0,1-3.37,9.7c-2.75,3.06-7.79,5.72-13.47,6.36A24.8,24.8,0,0,1,309.58,372c-3.94-2.64-6.41-5.95-9.82-8.84a48.64,48.64,0,0,0-31.19-10.41c-7.64.37-14.95,3-22.55,4-8,1.05-16.26.19-22.32-2.33-4.93-2.06-8.47-5.72-6.18-9.41,3.39-5.45,14.63-8,23-11.43a19.47,19.47,0,0,1,2-.48,91.74,91.74,0,0,1,22.26-2.55c5.21.06,11.07.43,15.36-1.68a26.54,26.54,0,0,1,3.6-1.88c4.05-1.39,8.43.71,9.6,3.08s.72,5.15,2.85,7.21c3.09,3,10.48,3.39,16.91,2.59a52.42,52.42,0,0,1,9.35-.84A18.21,18.21,0,0,1,332.33,342.75Zm-26.4-55.12c1.57,1.92,4.14,3.45,6.94,4.77A72.2,72.2,0,0,0,331.49,298c6.88,1.15,14.39,1.56,20.64,3.42,7.56,2.24,12.91,6.84,12.23,12.06S356,324.13,347,324.92c-7.64.67-16-1.62-22.41,1.28-4.43,2-6.25,5.95-11.44,7a13.41,13.41,0,0,1-9.33-1.81c-3.4-2.09-5.35-4.95-5.44-8s1.5-6.05,2.07-9.08a18.23,18.23,0,0,0-1.1-9.32c-1.37-3.85-3.95-7.88-10-9.55-8.42-2.36-21.51.54-27.5-3.53-4.22-2.85-2.25-7.67,1.68-11.29s9.56-6.62,13.23-10.32a17.59,17.59,0,0,0,5-9.62,1.75,1.75,0,0,0-.31-1.23c-2.17-2.05-1.92-5,2-6.5s9.86-.63,13.48.54c5.2,1.68,8.34,4.88,9.61,8.34s.7,7.19-.32,10.85C304.79,277.78,302.43,283.27,305.93,287.63Zm88.44-41.91c10.86,1.57,16.1,8.59,15,15.33-.82,4.89-4.8,10.13-12.15,13.19a44.62,44.62,0,0,1-8.67,2.46c-3.5.68-7.31,1.12-10.49.43a32.62,32.62,0,0,1-6-2.37c-7.23-3-18.44-2.95-27,.25-3,1.11-5.68,2.55-9,3.25-6.34,1.34-12.84-.74-15.8-3.81s-3.19-6.93-3.43-10.63-.53-7.55-3.58-10.6c-2.87-2.9-7.94-4.76-12.91-6.49-3.61-1.23-7.4-2.48-11.85-2.52-4.18-.05-8.53,1-12.65.81a20.67,20.67,0,0,1-10.43-3.48c-4.12-2.72-4.68-3.83-6.88-7.46a9,9,0,0,0-.82-1.46,20.07,20.07,0,0,1-1.83-3.29c-3-5.83-6.09-9.83-3.32-16.16a16.41,16.41,0,0,1,10.28-8.82A33,33,0,0,1,274.14,203c15.87.47,26.78,7.65,36.2,14.38q12.44,8.9,24.89,17.77c7.62,5.44,16.39,11.25,29.14,11.75C374.26,247.29,385,244.36,394.37,245.72Zm18.33-42.48c2.24,3.37,3.33,7.63-.94,10.86-3,2.26-8,3.41-12.59,3.56a67.3,67.3,0,0,1-13.24-1.22l-18-2.87c-5.94-.94-13.58-1.58-18.09,1.41-4.34,2.89-3.54,8-9.48,9.5a15.21,15.21,0,0,1-8.24-.67c-13.7-4.41-20-13.58-30.22-20.34a29.29,29.29,0,0,0-13.54-5.05c-3.37-.33-7,0-10.44-.32s-6.86-1.31-7.5-3.25c-.92-2.84,4.23-5.46,7.79-7.89,6.86-4.68,9.11-10.84,14.91-15.94,4.95-4.36,15.89-10.74,31.45-9.9,8.91.49,12.31,2,12.57,5,.25,2.68-2.72,5.37-3.21,8.09-.52,3,2,5.68,5.48,7.64,16.62,9.43,49.79,4.53,65.91,14.24A22.89,22.89,0,0,1,412.7,203.24Z" style="fill:#fff"></path><path d="M242.25,459.72q6.78.91,13.69,1.52c4.84.43,9.52.79,14.07,1.07a33.6,33.6,0,0,0-5.69-1.91C257.68,458.81,249.88,458.84,242.25,459.72Z" style="fill:#fff"></path></g><g style="opacity:0.30000000000000004"><path d="M34.88,245.66c8.53-2,18.12-4.87,21-9.89,3.15-5.38-3-10.1-6.94-14.69a18,18,0,0,1-3.49-5.88q-3.12,3.65-5.81,7.37a29.44,29.44,0,0,1,2.55,3.49,7.85,7.85,0,0,1,.83,6.76c-1.4,3.63-5.66,5.6-9.38,6.34-1.35.26-2.69.44-4,.57q-1.85,4-3.28,8C29.16,247,32.08,246.31,34.88,245.66Z" style="fill:#fff"></path><path d="M205.34,452.12c-3.21-2.26-4.16-5.43-6.71-8-3.33-3.35-9.38-5.57-16.19-6.34a65.34,65.34,0,0,0-18.8.82q6.31,2.58,12.85,4.94a42.29,42.29,0,0,1,6.79.27,20.87,20.87,0,0,1,6.7,1.84,12,12,0,0,1,4.68,3.86q5.78,1.71,11.68,3.22C206,452.55,205.65,452.34,205.34,452.12Z" style="fill:#fff"></path><path d="M385.75,430.24a18.72,18.72,0,0,1-9.27-10.19l-.15-1.79c-.3-6.07-5.87-11.53-14.59-14.34a54.17,54.17,0,0,1-7.13-2.4c-2.06-1-3.46-2.68-2.64-4.38a11.15,11.15,0,0,1,2.2-2.48c2.61-2.73,3.18-6,1.52-8.57-1.07-1.66-2.8-3.71-.42-5.17a7.88,7.88,0,0,1,5.62-.5,12.64,12.64,0,0,1,4,2.19,24.56,24.56,0,0,0,12.91,4.63c6,.34,11.8-1.44,17.08-3.92-.71-1.57-1.48-3.12-2.29-4.65a23.29,23.29,0,0,1-3.3,1.15,32.39,32.39,0,0,1-13.32.28,35.68,35.68,0,0,1-10.67-3.46c-2.72-1.43-5.07-3.26-8.74-3.83-6.09-1-14.08,2.7-14,6.49,0,3.3,4.93,5.7,4.77,9-.12,2.88-4,5.53-7.69,7.81-2.57,1.62-5.57,3.36-9.12,3.6a10,10,0,0,1-7.82-2.67c-1.52-1.62-2.07-3.55-3-5.34-1.86-3.42-5.39-6.42-10.12-8.58l-1-.2c-4.53-3-13.41-2-20.76-2.13-1.55,0-3.34-.23-3.69-1.08a1.4,1.4,0,0,1,.34-1.27c3.49-5,16.14-7.05,18.23-12.14.61-1.47.19-3,1.27-4.4,1.63-2.11,6-3.13,9.81-3.39s7.61,0,11.36-.75c5.25-1,9.52-4.13,10-7.2.64-4.41-5.69-8.22-3-12.54,1.67-2.64,6.36-4.5,11-5.36s9.35-1,14-1.45a71.07,71.07,0,0,1,9-.74c6.06.1,10.74,2.4,14.74,4.73q2.82,1.64,5.48,3.38a40.15,40.15,0,0,1,5.66-4.87q-3.85-1.73-8-3.21c-2.7-.94-5.61-1.88-6.95-3.53s-.87-3.88-.28-5.9l2.95-10.51a4.08,4.08,0,0,1,1.49-2.45c1.49-1.11,4.09-1.4,6.36-1.43,8.49-.12,16.54,2.08,25,.7,6.85-1.09,12.46-4.3,18.27-6.92a109.77,109.77,0,0,1,20-6.66c7.23-1.65,15.17-2.62,22.08-1.84a43.64,43.64,0,0,0,6.79-13c-8.68,3.15-19,4.51-26.82,8.37-4.23,2.06-8.77,5.05-13.69,4.53-3.36-.37-5.17-2.35-5.6-4.33s0-4.07-.51-6c-.91-3.21-4.62-5.73-8.7-7.8-11.66-5.87-27.52-9.47-35.09-17.36-1.35-1.4-2.39-3.13-1.14-4.75,2.61-3.44,11.48-3,16.49-5.52,5.19-2.61,4.12-7,2.52-10.44s-3.28-6.9-4.91-10.35c-1.17-2.48-2.35-5-2-7.64s2.28-5.55,6.2-7.29c5.61-2.48,13-1.86,18.81-.58A46.65,46.65,0,0,1,437.6,214c16.77,9.26,8.15,28.43,24.41,38a23.63,23.63,0,0,0,13.22,3.13,43,43,0,0,0,5.71-.85,57.61,57.61,0,0,0-2.89-9.67,18.09,18.09,0,0,1-5.94-1.26c-8.47-3.64-9.56-14.82-14.23-22.6-4-6.62-10.83-10.87-18.11-13.77s-15.2-4.59-22.72-7.11a3.92,3.92,0,0,1-2.52-1.72c-.76-1.7.55-6.11,2-9.41a271.65,271.65,0,0,0-33.38-13.06q-16.11-5.19-31.4-9.29l-5.65.28a2.87,2.87,0,0,1-1.59-.24c-.64-.41-.71-1.27-.66-2.13-2.38-.61-4.74-1.18-7.1-1.75q0,.48-.12,1a10,10,0,0,1-6.33,7.71c-2,.86-4.42,1.32-6.31,2.24a9,9,0,0,0-3.82,3.55c-2.49,4.34-.7,9,4.5,11.79,2.76,1.43,6.32,2.34,9.33,3.61a21.66,21.66,0,0,1,6.85,4.35c2.18,2.17,3.14,5.38-.43,7.37a19.69,19.69,0,0,1-5.92,1.74c-9.57,1.76-21,3.31-27.37-.33-4.66-2.68-4.6-7.22-7.5-10.71a23.17,23.17,0,0,0-7.2-5.14c-10.17-5.25-23.24-8.7-37.43-9.88-5-.41-10.71-.78-13-3.23-1.36-1.45-1.17-3.29-.92-5.05.69-5.41,2.67-11.24,7.59-15,1.74-1.33,7-3.89,8.57-6.44q-5.69-.34-11.28-.53a1.16,1.16,0,0,1,.14.47c.09,1.73-3.39,2.92-5.87,4.11a11.12,11.12,0,0,0-5.54,5,17.55,17.55,0,0,1-1.17,2.93,5.22,5.22,0,0,1-3.68,2.13c-2.37.3-4-.89-5.73-1.64-6.43-2.85-17.19-.24-24.85-2a33.27,33.27,0,0,1-6.88-2.65c-3.54-1.61-7.34-3-11.16-4.44q-4.74.74-9.42,1.62a70.6,70.6,0,0,1,10,4.69c5.86,3.29,11.93,7.11,20.62,7.38,5.93.19,12.26-1.35,18.06-.84,9,.81,13.57,7.43,8.44,12.41-2,2-5,3.52-7.78,5.18-5.41,3.31-9.83,7.27-11.4,11.5s0,8.7,5.2,11.24c2.94,1.45,10.34,2.42,8.13,4.64-3.51,3.51-13,.13-19-.83a50.28,50.28,0,0,0-14.58-.44c-6.6.88-13.49,2.64-19.83,1.6-4.59-.75-10.65-2.58-12.23-7.24-1.27-3.77,1-8.08-1-11.67-2.65-4.73-11.64-6.76-19.89-8.24s-17.34-3.22-20.65-7.78a6.51,6.51,0,0,1-.86-6q-4.84,1.75-9.38,3.63a17.19,17.19,0,0,0,1.48,5.27c1.21,2.61,3.06,5.43,1.71,8.41-.91,2-3,3.36-5,4.51-2.47,1.48-5.12,3-7.8,3-3.22.05-5.62-2.08-8-3.89A43.18,43.18,0,0,0,80,187q-6.89,4.06-12.84,8.43a25.14,25.14,0,0,1,4.52.14c5.73.73,9.74,3.33,13.17,5.93,2,1.53,4,3.17,4.45,5.19.33,1.55-.3,3.2-.24,4.79.09,4.07,4.51,7.29,9.17,10,4.43,2.55,9.66,5.78,7.17,9.61a26.94,26.94,0,0,1-2.87,3.05c-2.88,3.13-2.57,6.93.75,9.37,3.86,2.85,11.17,3.84,13.8,7.19s-1.55,8.41-8.23,9.87-13.72-.39-20.07,1.46c-6.07,1.76-9.24,6.26-15.43,7.77-6,1.45-11.83-.52-17.6-1.4a50.6,50.6,0,0,0-17.05.53c-3.3.65-6.46,1.63-9.8,2.11a19.35,19.35,0,0,1-7.74-.56,113.35,113.35,0,0,0,1.25,33.15c3,2.8,6.05,5.62,7.49,8.9a6.8,6.8,0,0,1-.79,7.37,11.77,11.77,0,0,1-1.94,1.83q1.15,3.35,2.46,6.5c4.3-2.69,8.55-5.42,11.08-8.65,3.05-3.92,3.22-8.34.43-11.8C36.82,302.37,26.3,299.5,23,293.84s2.2-13,12-16.25a50.73,50.73,0,0,1,19.83-2,60.37,60.37,0,0,1,26.18,8.09c5.55,3.33,10.06,8,7.41,12.95-2.42,4.53-10.48,8.31-10.91,12.89-.39,3.84,4.84,6.61,10.06,8.53s11.21,3.75,13.43,7.16c1.87,2.86.69,6.32,1.73,9.4,3.09,9,23.16,11.38,30.78,19.14,1,1,1.57,2.54-.18,3.42a8.11,8.11,0,0,1-3,.57c-4.62.26-9.68,1.54-12.72-1.16s-3.37-6-6.46-8.47c-5-4-13.66-6.37-22.88-6.15s-18.85,3-25.42,7.27c-2,1.28-3.67,2.68-5.8,3.88a31.31,31.31,0,0,1-10.33,3.36,236.85,236.85,0,0,0,24.28,24.89c7.68,2.47,15.21,5.1,20.14,10.94a33.17,33.17,0,0,1,5.17,9.24,331.18,331.18,0,0,0,36,22.36c2.59-1.57,4.69-2.61,4.69-2.61,4.24-2,6.55-5.29,5.69-8.06a3,3,0,0,1-.29-1.72,3.41,3.41,0,0,1,1.1-1.33c3.46-2.8,10.42-4,15.07-2.66,3.89,1.12,5.91,3.64,9.77,4.78,4.06,1.16,9.27.58,14.09-.05a52.82,52.82,0,0,1,9.89-.66c3.23.19,6.3,1.12,7.39,2.82s-.05,3.84,0,5.78c0,3.59,4.22,6.47,9.42,8s11.39,2,17.46,2.48,12.24.94,17.44,2.51a24.14,24.14,0,0,1,8.35,4.29,3.09,3.09,0,0,1,1.47,2.35,4.44,4.44,0,0,1-1.27,2.14c-1.31,1.54-2.61,3.08-3.92,4.64a20,20,0,0,1-5.19,4.69c-3.06,1.8-7.23,2.73-11.26,3.36a69.39,69.39,0,0,1-13.9.89q10,2.16,20.45,3.68a72.16,72.16,0,0,0,17.11-10c3.35-2.6,6.56-5.39,7.73-8.41s-.18-6.35-4.45-7.74c-2.39-.76-5.39-.85-7.87-1.54s-4.45-2.36-3-3.95c.93-1,3-1.63,4.85-2,15-3.37,32-2.35,45.48-7.82,7.69-3.14,13.06-8,20.79-11.12,9.06-3.69,21-4.42,29.61-1.82a32,32,0,0,1,9.76,4.89c4.25,3.08,7.48,6.9,7.11,11.15s-5.11,8.92-12.27,10.58c-6.05,1.38-12.24.45-18.26.05a106,106,0,0,0-17.43.26c-5,.48-10.14,1.36-14.18,3.35-6.74,3.3-8.65,8.9-6.81,13.33s6.7,8,11.37,11.47c1.35,1,2.7,2,4,3.09q9.24-.4,17.34-1.32c-3.13-2.85-7.37-4.57-11.61-5.93-2.74-.87-5.63-1.68-7.74-3.52a6.79,6.79,0,0,1-1.92-8c1.6-3.48,5.81-5.08,9.46-5.77,13.73-2.53,26.87,1.33,40.59-.65,4.85-.72,9.92-2.13,14.39-1,3.07.78,5.55,2.67,8.34,4a23.29,23.29,0,0,0,4.57,1.66,45.4,45.4,0,0,0,8.85-9.59A27.73,27.73,0,0,1,385.75,430.24Zm-90.9-65.08c-3.82,6.12-19,7.63-25.23,13.21-2.43,2.17-3.27,4.75-5.91,6.83-4.33,3.42-12.63,4.55-18.91,3.49a31.13,31.13,0,0,1-14.62-6.83c-3.74-3-6.88-6.26-11.47-8.81-3.88-2.16-8.79-3.79-11.75-6.43s-3.19-6.86,1.56-9.23c2.35-1.19,5.59-1.75,8.31-2.57,8.84-4.9,15.36-11.18,18.4-17.73,1.66-3.64,2.29-7.34,4.06-11a20.43,20.43,0,0,1,10.4-9.7,8.61,8.61,0,0,1,2.59-.75,9.16,9.16,0,0,1,3.4.47c6.43,1.81,13.39,4,15.05,8.12,1.4,3.44-1.39,7.37-5.36,10.55-3.71,3-8.77,6-8.59,9.4.13,2.15,2.5,3.88,5.33,5.09,6.3,2.65,14.88,3.13,22.12,5S297.81,360.4,294.85,365.16ZM161.42,283.88a40.39,40.39,0,0,0-13.48-8.28c-5-2-10.72-3.37-15.28-5.63s-8-5.68-6.69-9.44c1.13-3.28,5.75-6.2,11.05-7.8a55.6,55.6,0,0,1,16.82-2c11,.15,21.45,2.24,29.54,6,3.12,1.44,6,3.27,6.4,5.71.28,1.76-.8,3.6-1.49,5.4-1.41,3.71-.74,8,4.41,9.75,3.57,1.22,8.38,1,12.48,1.61s7.72,3.19,5.29,5.53a23.41,23.41,0,0,1-3.26,2.09c-3.68,2.48-3.05,5.87-3,8.87a21.09,21.09,0,0,1-4.51,12.86,6.17,6.17,0,0,1-.84,1.15c-6,4.84-10.42,11.34-19.89,13.31a20.44,20.44,0,0,1-16.26-3.53c-4.34-3.49-5.8-8.25-4-12.87,1.76-4.39,6.38-8.62,7.06-13C166.41,290,164.36,286.72,161.42,283.88Zm52.91-35.68c1.4-5.22,10.87-9.68,19.89-10.09s17,2.66,20.84,7c3.19,3.6,3.88,7.93,5.85,11.9a29.53,29.53,0,0,0,9.6,10.73,25.65,25.65,0,0,0,8.23,4c7.54,2,17.06.62,25.92-.22a91,91,0,0,1,18.78-.23c6,.72,11.52,2.52,14.42,5.52,2,2.08,3.5,5.49.88,7.77s-7.73,2.44-11.27,1.2a8.1,8.1,0,0,0-2.13-.18,66,66,0,0,0-16.69,2.91c-6.41,2.13-11.65,5.39-17.92,7.68s-14.64,3.43-19.55,1c-7-3.44-1.95-11-6-15.86-2.88-3.47-9.84-4.94-16.52-5.72a91.51,91.51,0,0,0-16.13-.59c-5.25.34-10.55,1.27-15.72,1.23A30.29,30.29,0,0,1,203,273.15c-2.44-1.31-4.31-3.31-3.09-5.38,1.8-3,8.65-4.07,12.12-6.63C217.06,257.4,213.14,252.61,214.33,248.2Zm-14.51,83.72c4.36-4.13,5.76-8.84,7.08-13.39,2.3-7.94,4.58-15.85,6.89-23.79.87-3,1.77-6,4.64-8.7,3.75-3.5,10.76-5.88,17.41-6s12.6,2.23,14.75,5.66c1.42,2.26,1.26,4.88,1.78,7.34a17.31,17.31,0,0,0,6.55,9.86c2.17,1.75,4.9,3.95,2.66,6s-7.19,2-11.16,2.43A27.52,27.52,0,0,0,234,319.27c-3.49,3.72-4.93,7.81-6.28,11.81-1,3-2.05,6-3.08,8.94a13.21,13.21,0,0,1-3,5.49c-3.31,3.4-10.42,5.47-16.69,5.32s-12.36-2-14.76-5.21a8.21,8.21,0,0,1-.61-1.3c-.36-2.87,1.54-4.54,4.23-7.25C195.6,335.29,198,333.68,199.82,331.92Zm167.39-15.48c-1.41,5.27-8.65,10.65-17.72,12-3.93.59-7.87.42-11.82.66s-8.28,1-10.94,2.9c-3.8,2.74-2.57,6.38-1,9.35s3.1,6.53-.38,9.38c-1.69,1.4-4.31,2.33-6.87,3.13a40.35,40.35,0,0,1-11.4,2.06,44.18,44.18,0,0,1-9.35-1.22c-4.24-1.26-9.73-4.74-13.78-6.09-2.87-1-6.87-1.86-9.84-2.75s-5.37-2.6-4.91-4.66c.57-2.5,4.79-4.37,8-6.32,8.14-5,10.11-12.83,4.56-17.86-1.75-1.57-4.12-2.88-5.59-4.57s-1.82-3.95.4-5.69c3.79-3,11.14-2.11,17-3.31,8.14-1.66,12.72-7.26,20.46-9.65,7.91-2.44,16.73-.91,24.07.92,7.87,2,15.56,4.31,21.3,7.9S368.64,311.16,367.21,316.44Zm-35-132.61c-.83-4.75,6.68-9.76,15-11.41s16.95-.59,24.16,1.36a78.38,78.38,0,0,1,24.28,11.49c4.69,3.28,9,6.95,10.07,11.37a4.85,4.85,0,0,1-.82,4.47c-1.11,1.39-3.17,2.5-5.13,3.6-4.89,2.74-9.56,5.66-12.79,9s-4.9,7.32-3.44,10.71c1.57,3.63,6.42,6.24,9.23,9.51s2.66,8.3-3.33,10.61a29.28,29.28,0,0,1-6,1.34,45,45,0,0,1-18.9-1.35,9.75,9.75,0,0,1-5.38-5c-1.76-3.71-1-8.42-.25-12.84.64-4,1.21-8.46-.53-11.9-1.46-2.89-4.63-4.4-5.92-7.42-.87-2.05-.74-4.51-1.06-6.8C350,190.6,333.82,193.3,332.21,183.83ZM302.29,219c5.33-4.26,14.42-6.58,22.89-7.07,11.67-.66,23.82,2.34,26.49,8.61,2.32,5.39-2.8,11.61-2.16,17.32.82,7.36,10.85,12.4,20.23,16.78l30.68,14.29c11.62,5.42,24,11.68,24.76,20.84a7.84,7.84,0,0,1-2.38,6.48c-3.16,3.19-9.36,5.09-15.32,6-11,1.62-17.89-.14-28-1.86-2.1-.35-4.58-.71-5.69-1-.57-.17-2.53-.47-2.53-.47-6.28-1.26-8.19-1.57-12.89-3.94-3-1.55-5.65-3.54-6-6s1.52-4.89,1.45-7.3c-.05-2.57-2.2-4.76-4.33-6.84-3-2.86-6.16-5.78-11.17-7.42-5.27-1.75-11.94-1.9-18.34-2s-13.08-.26-18.4-1.93-8.89-5.44-6.53-9.11c1.21-1.89,3.72-3.46,5.64-5.18,5.58-5,5.79-11.43.55-15.59-1.43-1.13-3.23-2.12-4.08-3.43-1.18-1.84-.41-4,.78-6.06A17.68,17.68,0,0,1,302.29,219Zm-81.06-16.21c-2.47-3-3.12-6.75-.49-10.14,4.16-5.36,15.4-8.32,24.94-8.14s17.8,2.78,25.68,5.35c11.61,3.77,24.05,8.24,26.86,16a3.69,3.69,0,0,1,0,3.07,10.6,10.6,0,0,1-3,2.92c-6.59,5.09-13.16,10.73-13.7,16.64-.41,4.38,2.58,8.37,6.41,11.81,1.78,1.63,3.84,3.52,2.58,5.56-.92,1.48-3.36,2.56-4.73,3.95-3.18,3.21-.41,7.68-5.41,10.06-4.3,2-10.4.22-11.91-2.5s-.28-5.88-.32-8.84c-.08-4.72-3.64-9.08-9.64-11.81-4-1.8-9.48-3.74-8.11-6.87a13.13,13.13,0,0,1,1.78-2.29c3.07-3.72,1.61-8.18-3.38-10.38-6.37-2-11.09-4.37-16.59-7C227.87,208.1,223.72,205.77,221.23,202.78ZM115.31,240.93c-1.25-.77-2.39-1.69-2.27-2.83.21-2,4.12-3.45,5.82-5.34,2.9-3.2-1.23-6.39-5.25-8.54-3.76-2-7.69-3.95-10.23-6.54-3.88-4-4.11-9.23-.59-13.9s10.73-8.65,18.95-10.47c9-1.95,20.15-.66,22.58,4.22a11.19,11.19,0,0,1,.69,4.4c.43,7,5.91,14.2,17.3,16,7.49,1.19,16-.15,24.12-.92a159.88,159.88,0,0,1,44,1.81c7,1.34,14.55,4.12,13.57,8.61-.68,3.06-5.37,5.75-10.41,7.07s-10.49,1.51-15.76,1.69c-3.31,1.3-9.84,3.88-11.6,6.5-1.37,2.1-.48,4.25-.17,6.34a5.37,5.37,0,0,1-3.52,6,13.51,13.51,0,0,1-9.3,0c-2.6-1-4.33-2.52-6.3-3.87-5.26-3.65-12.75-6.23-21.34-6.77-11.22-.72-23.38,2-34.51,1.15A36.23,36.23,0,0,1,115.31,240.93Zm-14.85,74.52c-2.66-1.34-5.87-3.6-7.48-6.38s-.66-6.22,2.43-9c3.83-3.41,11.1-6.58,10-10.21-.45-1.46-2.31-2.53-4.08-3.54q-6.6-3.68-13.2-7.39c-2.62-1.48-5.42-3.17-5.25-5.46.13-1.71,2-3.41,4.26-4.72,6.85-3.91,18.09-4.7,24.62-1.75,4.2,1.93,6.31,5,9.77,7.36,4.12,2.79,10,4.48,15.82,6.12s11.69,3.3,15.87,6.07,6.29,6.91,3.6,10.76c-2,2.74-6.1,5.07-7.41,7.89s-.32,6.08-4.5,7.64c-2.77,1-6,.43-9.06.47-5.78.07-11.2,2.43-16.84,3.78S104.49,317.52,100.46,315.45ZM160,399.06c-4.94,2.58-11.2,1.34-17.39,2.1-2.63.33-5.2,0-7.84,0s-5.78.87-6.66,2.35a2.05,2.05,0,0,0,.24,2.29c1,1.57,3,2.82,4.16,4.32s1.44,3.57-.69,5c-2.57,1.75-7.12,1.68-10.34.86-9.67-2.44-13.23-9-14.89-15.24S104,387.86,97.2,383.37c-5.94-3.91-15.36-5.41-23.47-7.81S58,368.93,59.21,363.3c.63-2.84,3.46-5.57,6.85-7.93a46.4,46.4,0,0,1,19.35-7.76c7.5-1.14,15.64-.07,19.62,3.23,2.62,2.19,3.25,5.09,4.59,7.71a10.76,10.76,0,0,0,8.57,5.88c6.18.84,13.23-2.21,19.67-1.82,6.77.4,10.21,4.28,12.75,7.78q5.31,7.28,10.6,14.56c1.59,2.21,3.23,4.46,3.44,7S163.46,397.23,160,399.06Zm2.32-27.51c-3.13-9.77-11.93-18.47-24.76-24.47-6.58-3.06-14.26-5.48-19.27-9.43s-6.54-10.1-.41-14.5c6.32-4.57,18-5.16,26.23-3.21s14.34,5.76,21.49,8.71a18.79,18.79,0,0,0,7.35,1.7c7.2,0,11.89-6.35,19.17-7.2.79-.1,3-.15,3.82,1,1.32,2.07-2,6.62-4.62,9.23s-6.64,4.78-9.66,7.28-5.08,5.75-3.07,8.17c3.12,3.78,14.12,3.51,16.69,7.45,2.42,3.71-4.23,8.11-4.7,12.3-.66,5.6,9.91,9.84,6.48,15.37-1.87,3-7.72,5.09-13,5.19a24,24,0,0,1-13.23-3.58,16.46,16.46,0,0,1-5.86-6.1C163.59,376.92,163.14,374.19,162.29,371.55Zm145.27,35.51c-7.87,6.45-21.45,10.13-34.27,11-10,.67-21.1.13-29.19,4.17-1.8.88-3.33,2-5.27,2.71-3.68,1.44-8.18,1.48-12.25,1.28-6.16-.31-12.83-1.31-15.21-4.47-1.76-2.33-.68-5.21-.27-7.93s-.25-5.77-4.16-6.93-8.81,0-13.37.68A52,52,0,0,1,176,407.1c-5-1.07-9.7-3.44-9.1-6.72.53-2.86,5.13-5.4,10-6.36a44.68,44.68,0,0,1,14.55,0l1.3-.32c5.51-2.34,9.51-5.94,10.74-9.63.58-1.75.59-3.54,1.67-5.25a8.51,8.51,0,0,1,6.76-3.45,7.25,7.25,0,0,1,6.58,3.88c2.79,4.46,5.66,9,11.21,12.38s14.45,5.23,22.91,3.34c5.29-1.18,9.63-3.63,14.41-5.51A67.87,67.87,0,0,1,292,384.92c5.13.05,10.18.72,14.09,2.34C315.65,391.3,315.43,400.61,307.56,407.06Z" style="fill:#fff"></path></g></g></g><g id="freepik--Plants--inject-4"><g id="freepik--Bullrush--inject-4"><path d="M434.45,159.43a75.24,75.24,0,0,0-3.28,12.48,86.88,86.88,0,0,0-1.11,12.39v0a95.87,95.87,0,0,0,.34,9.87c0,.37.07.73.1,1.1s.06.51.08.76l-.16-.1-.18-.1-.32-.18c-.31-.18-.62-.36-.94-.53-.09-.06-.2-.11-.29-.16l0-.57c-.06-1-.09-2-.11-3h0v0c-.07-2.11-.05-4.31.05-6.56v0a78.41,78.41,0,0,1,1.69-13.1,62.83,62.83,0,0,1,3.8-12.21,23.2,23.2,0,0,1,1.54-3.18C435.74,156.32,435.14,157.38,434.45,159.43Z" style="fill:#A3D2CA"></path><path d="M434.45,159.43a75.24,75.24,0,0,0-3.28,12.48,86.88,86.88,0,0,0-1.11,12.39v0a95.87,95.87,0,0,0,.34,9.87c0,.37.07.73.1,1.1s.06.51.08.76l-.16-.1-.18-.1-.32-.18c-.31-.18-.62-.36-.94-.53-.09-.06-.2-.11-.29-.16l0-.57c-.06-1-.09-2-.11-3h0v0c-.07-2.11-.05-4.31.05-6.56v0a78.41,78.41,0,0,1,1.69-13.1,62.83,62.83,0,0,1,3.8-12.21,23.2,23.2,0,0,1,1.54-3.18C435.74,156.32,435.14,157.38,434.45,159.43Z" style="opacity:0.30000000000000004"></path><path d="M429,195.14c-.09-.06-.2-.11-.29-.16-.24-.14-.47-.28-.72-.4a.69.69,0,0,0-.19-.1c-.43-.26-.88-.5-1.32-.73a84.86,84.86,0,0,1-5.35-22.43,63.31,63.31,0,0,1,0-12.77,24,24,0,0,1,.51-3.5c.13,0-.13,1.22-.17,3.38a75.35,75.35,0,0,0,.61,12.89,90.24,90.24,0,0,0,5.32,20c.26.67.53,1.35.83,2,.15.37.31.74.47,1.11Z" style="fill:#A3D2CA"></path><path d="M429,195.14c-.09-.06-.2-.11-.29-.16-.24-.14-.47-.28-.72-.4a.69.69,0,0,0-.19-.1c-.43-.26-.88-.5-1.32-.73a84.86,84.86,0,0,1-5.35-22.43,63.31,63.31,0,0,1,0-12.77,24,24,0,0,1,.51-3.5c.13,0-.13,1.22-.17,3.38a75.35,75.35,0,0,0,.61,12.89,90.24,90.24,0,0,0,5.32,20c.26.67.53,1.35.83,2,.15.37.31.74.47,1.11Z" style="opacity:0.30000000000000004"></path><path d="M458.6,168.13c.07.12-1,.68-2.71,2a74.84,74.84,0,0,0-9.56,8.67,90.14,90.14,0,0,0-13.08,18.78l-1.16-.68-.38-.23c.28-.48.56-1,.86-1.46v0a84.54,84.54,0,0,1,13.16-17.1,64,64,0,0,1,9.84-8.15A25.69,25.69,0,0,1,458.6,168.13Z" style="fill:#A3D2CA"></path><path d="M458.6,168.13c.07.12-1,.68-2.71,2a74.84,74.84,0,0,0-9.56,8.67,90.14,90.14,0,0,0-13.08,18.78l-1.16-.68-.38-.23c.28-.48.56-1,.86-1.46v0a84.54,84.54,0,0,1,13.16-17.1,64,64,0,0,1,9.84-8.15A25.69,25.69,0,0,1,458.6,168.13Z" style="opacity:0.30000000000000004"></path><path d="M458.07,149.57c.12.14-1.17,1.18-3.06,3.42-.3.37-.62.75-1,1.16A100.06,100.06,0,0,0,447,163.5c-.75,1.11-1.5,2.3-2.26,3.57a122.43,122.43,0,0,0-12.15,28.14v0c-.17.55-.33,1.12-.48,1.69l-.38-.23-1.13-.64-.16-.1-.18-.1-.32-.18.17-.54h0c.11-.3.2-.61.31-.93s.26-.76.39-1.16h0a113.2,113.2,0,0,1,12.95-26.71c.76-1.14,1.55-2.29,2.36-3.43a78.81,78.81,0,0,1,7.53-9.12l0,0a.38.38,0,0,1,.11-.11c.25-.28.52-.54.79-.81A32.8,32.8,0,0,1,458.07,149.57Z" style="fill:#A3D2CA"></path><path d="M458.07,149.57c.12.14-1.17,1.18-3.06,3.42-.3.37-.62.75-1,1.16A100.06,100.06,0,0,0,447,163.5c-.75,1.11-1.5,2.3-2.26,3.57a122.43,122.43,0,0,0-12.15,28.14v0c-.17.55-.33,1.12-.48,1.69l-.38-.23-1.13-.64-.16-.1-.18-.1-.32-.18.17-.54h0c.11-.3.2-.61.31-.93s.26-.76.39-1.16h0a113.2,113.2,0,0,1,12.95-26.71c.76-1.14,1.55-2.29,2.36-3.43a78.81,78.81,0,0,1,7.53-9.12l0,0a.38.38,0,0,1,.11-.11c.25-.28.52-.54.79-.81A32.8,32.8,0,0,1,458.07,149.57Z" style="opacity:0.2"></path><path d="M454.15,154s.68.82-.4,2.47-4.11,5.51-5.32,6.87c-.77.85-3.36-.41-2.4-1.95a50.52,50.52,0,0,1,5.13-6.72c1.22-1.26,1.88-1.57,2.59-1.09l-.09.09c-.08.08,0,.24.09.36a.26.26,0,0,0,.32.07Z" style="fill:#b16668"></path><path d="M428.69,195c-.24-.14-.47-.28-.72-.4a.69.69,0,0,0-.19-.1q-.22-1.56-.42-3.21a101.48,101.48,0,0,1,0-25.62c.18-1.2.35-2.42.56-3.65h0a68.56,68.56,0,0,1,2.46-10.19h0c.11-.37.23-.75.37-1.12a29,29,0,0,1,1.53-4c.15.07-.47,1.4-1.1,3.93-.1.41-.22.85-.33,1.3a94.18,94.18,0,0,0-2,10.22c-.15,1.18-.28,2.42-.4,3.74a108.9,108.9,0,0,0,.16,18.86v0c.13,1.3.28,2.62.46,4,.27,2.08.62,4.21,1,6.37h0l.15.72-.32-.18c-.31-.18-.62-.36-.94-.53C428.89,195.08,428.78,195,428.69,195Z" style="fill:#A3D2CA"></path><path d="M428.69,195c-.24-.14-.47-.28-.72-.4a.69.69,0,0,0-.19-.1q-.22-1.56-.42-3.21a101.48,101.48,0,0,1,0-25.62c.18-1.2.35-2.42.56-3.65h0a68.56,68.56,0,0,1,2.46-10.19h0c.11-.37.23-.75.37-1.12a29,29,0,0,1,1.53-4c.15.07-.47,1.4-1.1,3.93-.1.41-.22.85-.33,1.3a94.18,94.18,0,0,0-2,10.22c-.15,1.18-.28,2.42-.4,3.74a108.9,108.9,0,0,0,.16,18.86v0c.13,1.3.28,2.62.46,4,.27,2.08.62,4.21,1,6.37h0l.15.72-.32-.18c-.31-.18-.62-.36-.94-.53C428.89,195.08,428.78,195,428.69,195Z" style="opacity:0.2"></path><path d="M430.9,151.8s.86.39.64,2.13-1.13,6-1.57,7.56c-.28,1-2.84,1-2.68-.62a44.64,44.64,0,0,1,1.48-7.37c.48-1.48.89-2,1.64-1.87l0,.11c0,.09.06.2.21.24s.24,0,.28-.07Z" style="fill:#b16668"></path><path d="M451.26,141.44c.13.12-1,1.3-2.64,3.75a101,101,0,0,0-8.57,15.2A122.46,122.46,0,0,0,430.79,193h0c-.1.75-.21,1.5-.29,2.26,0,.22-.06.45-.08.66l-.18-.1-.32-.18c-.31-.18-.62-.36-.94-.53-.09-.06-.2-.11-.29-.16-.24-.14-.47-.28-.72-.4.07-.42.14-.85.22-1.28q.17-.95.36-1.92h0v0c.16-.85.33-1.72.51-2.6.3-1.45.63-2.92,1-4.43v0A111.1,111.1,0,0,1,439,159.73a85.93,85.93,0,0,1,9.16-14.65C449.13,143.85,451.12,141.32,451.26,141.44Z" style="fill:#A3D2CA"></path><path d="M451.26,141.44c.13.12-1,1.3-2.64,3.75a101,101,0,0,0-8.57,15.2A122.46,122.46,0,0,0,430.79,193h0c-.1.75-.21,1.5-.29,2.26,0,.22-.06.45-.08.66l-.18-.1-.32-.18c-.31-.18-.62-.36-.94-.53-.09-.06-.2-.11-.29-.16-.24-.14-.47-.28-.72-.4.07-.42.14-.85.22-1.28q.17-.95.36-1.92h0v0c.16-.85.33-1.72.51-2.6.3-1.45.63-2.92,1-4.43v0A111.1,111.1,0,0,1,439,159.73a85.93,85.93,0,0,1,9.16-14.65C449.13,143.85,451.12,141.32,451.26,141.44Z" style="opacity:0.2"></path></g><g id="freepik--bullrush--inject-4"><path d="M70.61,362.14c-.18,2.71-.45,5.33-.78,7.83h0c-.17,1.16-.35,2.3-.53,3.42h0c-.28,1.71-.59,3.36-.91,4.93h0l-.12.58L67,377.78a2.4,2.4,0,0,1-.24-.22l-.3-.28-.12-.12c.25-1,.47-2,.68-3h0c.1-.42.18-.83.26-1.23A105.3,105.3,0,0,0,69,361.51h0A101.38,101.38,0,0,0,69.27,347a86.85,86.85,0,0,0-2.19-14.86c-.53-2.47-1.1-3.78-1-3.84a29.12,29.12,0,0,1,1.38,3.9,72.27,72.27,0,0,1,2.83,14.61A90.74,90.74,0,0,1,70.61,362.14Z" style="fill:#A3D2CA"></path><path d="M70.61,362.14c-.18,2.71-.45,5.33-.78,7.83h0c-.17,1.16-.35,2.3-.53,3.42h0c-.28,1.71-.59,3.36-.91,4.93h0l-.12.58L67,377.78a2.4,2.4,0,0,1-.24-.22l-.3-.28-.12-.12c.25-1,.47-2,.68-3h0c.1-.42.18-.83.26-1.23A105.3,105.3,0,0,0,69,361.51h0A101.38,101.38,0,0,0,69.27,347a86.85,86.85,0,0,0-2.19-14.86c-.53-2.47-1.1-3.78-1-3.84a29.12,29.12,0,0,1,1.38,3.9,72.27,72.27,0,0,1,2.83,14.61A90.74,90.74,0,0,1,70.61,362.14Z" style="opacity:0.30000000000000004"></path><path d="M82.67,332.86A73.5,73.5,0,0,1,81,347.64a102.32,102.32,0,0,1-10.8,28.57c-.4.76-.82,1.5-1.22,2.21h0c-.14.26-.28.49-.41.74h0v0a2.76,2.76,0,0,1-.27-.23L67,377.78a2.4,2.4,0,0,1-.24-.22l.25-.42v0c.29-.46.57-.89.84-1.35.49-.78,1-1.58,1.41-2.36h0c.23-.4.46-.8.68-1.2h0c.42-.76.83-1.5,1.22-2.25v0a105,105,0,0,0,8.71-22.4,86.57,86.57,0,0,0,2.36-14.84c.23-2.52.08-3.93.23-3.94A26.31,26.31,0,0,1,82.67,332.86Z" style="fill:#A3D2CA"></path><path d="M82.67,332.86A73.5,73.5,0,0,1,81,347.64a102.32,102.32,0,0,1-10.8,28.57c-.4.76-.82,1.5-1.22,2.21h0c-.14.26-.28.49-.41.74h0v0a2.76,2.76,0,0,1-.27-.23L67,377.78a2.4,2.4,0,0,1-.24-.22l.25-.42v0c.29-.46.57-.89.84-1.35.49-.78,1-1.58,1.41-2.36h0c.23-.4.46-.8.68-1.2h0c.42-.76.83-1.5,1.22-2.25v0a105,105,0,0,0,8.71-22.4,86.57,86.57,0,0,0,2.36-14.84c.23-2.52.08-3.93.23-3.94A26.31,26.31,0,0,1,82.67,332.86Z" style="opacity:0.30000000000000004"></path><path d="M64.67,373.85c.45,1,.88,2,1.27,2.92l-.93-.88c-1-.89-1.88-1.78-2.79-2.68a103.15,103.15,0,0,0-11.38-20.12,80.63,80.63,0,0,0-8.24-9.57l-1.71-1.69c-1.79-1.78-3-2.57-2.89-2.69a29.22,29.22,0,0,1,3.28,2.51c.27.22.55.45.81.69a74.5,74.5,0,0,1,9.53,10A97.51,97.51,0,0,1,64.67,373.85Z" style="fill:#A3D2CA"></path><path d="M64.67,373.85c.45,1,.88,2,1.27,2.92l-.93-.88c-1-.89-1.88-1.78-2.79-2.68a103.15,103.15,0,0,0-11.38-20.12,80.63,80.63,0,0,0-8.24-9.57l-1.71-1.69c-1.79-1.78-3-2.57-2.89-2.69a29.22,29.22,0,0,1,3.28,2.51c.27.22.55.45.81.69a74.5,74.5,0,0,1,9.53,10A97.51,97.51,0,0,1,64.67,373.85Z" style="opacity:0.30000000000000004"></path><path d="M68.27,378.93,67,377.78a2.4,2.4,0,0,1-.24-.22l-.3-.28-.12-.12-.43-.39-.93-.88c-.11-.68-.22-1.37-.34-2A142.09,142.09,0,0,0,54.21,339.7c-.72-1.57-1.43-3-2.15-4.43h0a120.77,120.77,0,0,0-7-11.71h0c-.35-.52-.68-1-1-1.47-1.9-2.85-3.25-4.21-3.11-4.35s2.5,2.79,3.67,4.21c.28.34.56.69.82,1l.09.13a92.05,92.05,0,0,1,7.57,11.56s0,0,0,0c.8,1.43,1.56,2.85,2.3,4.27A132.52,132.52,0,0,1,67,371.49v0c.11.48.21.94.31,1.41s.16.74.23,1.11h0c.13.59.24,1.17.35,1.73.17.88.34,1.73.5,2.57h0q.06.42.15.81A2.76,2.76,0,0,1,68.27,378.93Z" style="fill:#A3D2CA"></path><path d="M68.27,378.93,67,377.78a2.4,2.4,0,0,1-.24-.22l-.3-.28-.12-.12-.43-.39-.93-.88c-.11-.68-.22-1.37-.34-2A142.09,142.09,0,0,0,54.21,339.7c-.72-1.57-1.43-3-2.15-4.43h0a120.77,120.77,0,0,0-7-11.71h0c-.35-.52-.68-1-1-1.47-1.9-2.85-3.25-4.21-3.11-4.35s2.5,2.79,3.67,4.21c.28.34.56.69.82,1l.09.13a92.05,92.05,0,0,1,7.57,11.56s0,0,0,0c.8,1.43,1.56,2.85,2.3,4.27A132.52,132.52,0,0,1,67,371.49v0c.11.48.21.94.31,1.41s.16.74.23,1.11h0c.13.59.24,1.17.35,1.73.17.88.34,1.73.5,2.57h0q.06.42.15.81A2.76,2.76,0,0,1,68.27,378.93Z" style="opacity:0.2"></path><path d="M45,323.4s-.89.86.14,2.91c1,1.89,4.06,6.9,5.29,8.63.78,1.09,3.93,0,3-1.95a57.71,57.71,0,0,0-5.07-8.43c-1.25-1.62-2-2.06-2.86-1.59l.09.12c.08.1,0,.28-.15.4a.32.32,0,0,1-.38,0Z" style="fill:#b16668"></path><path d="M68.7,379.32c.09-.3.18-.59.26-.89h0c.38-1.31.76-2.66,1.13-4.06h0c.38-1.43.75-2.89,1.1-4.41v0a117,117,0,0,0,3.27-29.65c0-1.42-.09-2.86-.18-4.3a78.17,78.17,0,0,0-1.52-12.16v0l0-.13c-.07-.38-.16-.77-.25-1.15a33.08,33.08,0,0,0-1.28-4.79c-.17.06.38,1.68.77,4.69.07.48.14,1,.21,1.54h0a102.14,102.14,0,0,1,1,12.08c0,1.38,0,2.84,0,4.38a123.54,123.54,0,0,1-2.59,21.73c-.32,1.53-.67,3.1-1.06,4.68-.59,2.36-1.25,4.77-2,7.21h0l-.48,1.52c-.18.57-.38,1.14-.57,1.72l.3.28a2.4,2.4,0,0,0,.24.22l1.24,1.15a2.76,2.76,0,0,0,.27.23v0Z" style="fill:#A3D2CA"></path><path d="M68.7,379.32c.09-.3.18-.59.26-.89h0c.38-1.31.76-2.66,1.13-4.06h0c.38-1.43.75-2.89,1.1-4.41v0a117,117,0,0,0,3.27-29.65c0-1.42-.09-2.86-.18-4.3a78.17,78.17,0,0,0-1.52-12.16v0l0-.13c-.07-.38-.16-.77-.25-1.15a33.08,33.08,0,0,0-1.28-4.79c-.17.06.38,1.68.77,4.69.07.48.14,1,.21,1.54h0a102.14,102.14,0,0,1,1,12.08c0,1.38,0,2.84,0,4.38a123.54,123.54,0,0,1-2.59,21.73c-.32,1.53-.67,3.1-1.06,4.68-.59,2.36-1.25,4.77-2,7.21h0l-.48,1.52c-.18.57-.38,1.14-.57,1.72l.3.28a2.4,2.4,0,0,0,.24.22l1.24,1.15a2.76,2.76,0,0,0,.27.23v0Z" style="opacity:0.2"></path><path d="M72.17,323.8s-1,.33-1,2.38c0,1.88.55,7.09.85,8.95.2,1.17,3.16,1.5,3.18-.38a52.41,52.41,0,0,0-.76-8.71c-.37-1.78-.78-2.41-1.67-2.39l0,.13c0,.11-.09.23-.28.26a.26.26,0,0,1-.31-.12Z" style="fill:#b16668"></path><path d="M68.54,379.18v0a2.76,2.76,0,0,1-.27-.23L67,377.78c0-.22,0-.42,0-.64v0c0-.52,0-1,0-1.56s0-.94,0-1.4h0c0-.88,0-1.77,0-2.64v0a142.36,142.36,0,0,0-6.53-38.93,117.37,117.37,0,0,0-8-18.69c-1.55-3.05-2.74-4.57-2.57-4.69s2.15,3.07,3.14,4.62a98.6,98.6,0,0,1,8.72,18.13A129.18,129.18,0,0,1,69,361.5h0c.24,1.81.43,3.58.59,5.31.11,1.07.19,2.12.28,3.15h0c0,.75.1,1.49.15,2.21h0c0,.73.09,1.45.12,2.15h0c0,.63.07,1.24.09,1.85.08,1.59.13,3.13.17,4.61l-1.66-1.5Z" style="fill:#A3D2CA"></path><path d="M68.54,379.18v0a2.76,2.76,0,0,1-.27-.23L67,377.78c0-.22,0-.42,0-.64v0c0-.52,0-1,0-1.56s0-.94,0-1.4h0c0-.88,0-1.77,0-2.64v0a142.36,142.36,0,0,0-6.53-38.93,117.37,117.37,0,0,0-8-18.69c-1.55-3.05-2.74-4.57-2.57-4.69s2.15,3.07,3.14,4.62a98.6,98.6,0,0,1,8.72,18.13A129.18,129.18,0,0,1,69,361.5h0c.24,1.81.43,3.58.59,5.31.11,1.07.19,2.12.28,3.15h0c0,.75.1,1.49.15,2.21h0c0,.73.09,1.45.12,2.15h0c0,.63.07,1.24.09,1.85.08,1.59.13,3.13.17,4.61l-1.66-1.5Z" style="opacity:0.2"></path></g></g><g id="freepik--character-2--inject-4"><path d="M450.6,299.92h0s-90.44-64.8-133.29-86.33c-49.67-24.95-131.64-47-132.69-47.3h0c12.68,39.34,45.68,75.54,114.23,106.43,57.34,23.62,130.13,31.82,151.77,27.2Z" style="opacity:0.05"></path><g id="freepik--Character--inject-4"><g id="freepik--Canoe--inject-4"><path d="M446.53,274.66,188.73,125.82s81.3,27,129.75,54.93C360,204.73,446.53,274.66,446.53,274.66Z" style="fill:#A3D2CA"></path><path d="M446.53,274.66,188.73,125.82s81.3,27,129.75,54.93C360,204.73,446.53,274.66,446.53,274.66Z" style="fill:#fff;opacity:0.35000000000000003"></path><path d="M446.53,274.66a45.62,45.62,0,0,1-31.15,12.16c-19.51,0-76.14-10.16-152.28-54.12-38.07-22-69.21-59.94-74.37-106.88Z" style="fill:#A3D2CA"></path><path d="M446.53,274.66c-21.88,3.36-94-9.05-149.94-36,0,0,6.38-3,16.75-1s36.84,18,75.07,27.36C428.21,274.82,446.53,274.66,446.53,274.66Z" style="fill:#fff;opacity:0.4"></path><path d="M263.1,232.7c76.14,44,132.77,54.12,152.28,54.12a45.62,45.62,0,0,0,31.15-12.16c-21.88,3.36-94-9.05-149.94-36C230,203.88,199.11,165.82,188.73,125.82,193.89,172.76,225,210.72,263.1,232.7Z" style="opacity:0.1"></path><path d="M311.56,178.75c-14.34-8.27-37.58-10.27-51.92-2-6.29,3.64-9.15,8.26-9.17,13,0,.69,0,3.36,0,4,0,6.07,4.59,12.33,12.63,17,14.34,8.28,37.58,10.28,51.92,2,6.33-3.65,9.18-8.31,9.17-13.08V195.7C324.21,189.64,319.59,183.39,311.56,178.75Z" style="fill:#A3D2CA"></path><path d="M311.56,178.75c-14.34-8.27-37.58-10.27-51.92-2-6.29,3.64-9.15,8.26-9.17,13,0,.69,0,3.36,0,4,0,6.07,4.59,12.33,12.63,17,14.34,8.28,37.58,10.28,51.92,2,6.33-3.65,9.18-8.31,9.17-13.08V195.7C324.21,189.64,319.59,183.39,311.56,178.75Z" style="opacity:0.15"></path><path d="M259.64,176.75c-14.33,8.28-10.87,21.7,3.46,30s37.58,10.27,51.92,2,10.87-21.69-3.46-30S274,168.48,259.64,176.75Z" style="fill:#A3D2CA"></path><path d="M259.64,176.75c-14.33,8.28-10.87,21.7,3.46,30s37.58,10.27,51.92,2,10.87-21.69-3.46-30S274,168.48,259.64,176.75Z" style="fill:#fff;opacity:0.55"></path><path d="M292.41,210.61c-9.87,0-20.18-2.55-27.6-6.83-6.85-4-10.93-9.18-10.93-14s4.06-8.14,7.47-10.1c5.48-3.17,12.71-4.85,20.9-4.85,9.87,0,20.19,2.56,27.6,6.84,6.85,4,10.94,9.18,10.94,14s-4.07,8.14-7.48,10.1c-5.48,3.17-12.71,4.84-20.9,4.84Z" style="fill:#A3D2CA"></path><path d="M292.41,210.61c-9.87,0-20.18-2.55-27.6-6.83-6.85-4-10.93-9.18-10.93-14s4.06-8.14,7.47-10.1c5.48-3.17,12.71-4.85,20.9-4.85,9.87,0,20.19,2.56,27.6,6.84,6.85,4,10.94,9.18,10.94,14s-4.07,8.14-7.48,10.1c-5.48,3.17-12.71,4.84-20.9,4.84Z" style="opacity:0.25"></path><path d="M319.43,200.19v.09a17.26,17.26,0,0,1-6.12,5.49c-5.48,3.17-12.71,4.84-20.9,4.84-9.86,0-20.18-2.55-27.6-6.84-5.22-3-8.83-6.76-10.26-10.49v-.05c-.07-.18-.14-.35-.2-.53-3.74-10.23,1.83-17.54,12.21-21.94a24.14,24.14,0,0,1,12.81-2,17.49,17.49,0,0,1,11.69,6.1c4.34,5.24,6,10.33,10.11,13.88C308.11,194.66,315.82,195.2,319.43,200.19Z" style="fill:#37474f"></path><path d="M271.7,170.76c4.3-1.47,11.07-1.47,14.82.31a19,19,0,0,0-7.15-2.31,24.14,24.14,0,0,0-12.81,2c-10.38,4.4-15.95,11.71-12.21,21.94.06.18.13.35.2.53v.05a15.35,15.35,0,0,0,2.6,4.27c-.1-.2-3.4-8.25-1.1-14.8C258.25,176.51,267.35,172.24,271.7,170.76Z" style="fill:#455a64"></path><path d="M245.23,150.25c0-2.92-2.53-6-6.63-8.33-7-4-18.79-5-24.62-1.52a6.64,6.64,0,0,0-3.6,5.79c0,.29,0,1.32,0,1.55,0,3.06,2.19,6.38,6.24,8.71,7,4.05,17.43,5.17,24.43,1.12,2.92-1.68,4.2-3.71,4.19-5.79C245.26,151.49,245.23,150.47,245.23,150.25Z" style="fill:#37474f"></path><path d="M214,140.4c-5.83,3.48-4.38,10.46,2.62,14.5S234,160.07,241,156s4.57-10.06-2.44-14.1S219.81,136.93,214,140.4Z" style="fill:#455a64"></path><polygon points="194.43 127.12 208.28 135.11 211.74 133.11 197.89 125.12 194.43 127.12" style="fill:#455a64"></polygon><polygon points="208.28 135.11 206.55 138.11 210.01 136.11 211.74 133.11 208.28 135.11" style="fill:#37474f"></polygon><path d="M208.28,139.11a3.83,3.83,0,0,0,3.46,0,1.05,1.05,0,0,0,0-2l-1.73-1-3.46,2Z" style="fill:#455a64"></path><path d="M194.37,131.08c-1-.56-1-1.45,0-2a3.83,3.83,0,0,1,3.46,0l1.73,1-3.46,2Z" style="fill:#455a64"></path><path d="M195.23,129.58a.34.34,0,0,0,0,.65,1.21,1.21,0,0,0,1.14,0c.32-.18.32-.47,0-.65A1.21,1.21,0,0,0,195.23,129.58Z" style="fill:#e0e0e0"></path><polygon points="194.43 127.12 196.1 132.07 199.56 130.08 194.43 127.12" style="fill:#263238"></polygon><ellipse cx="209.93" cy="138.05" rx="0.81" ry="0.47" style="fill:#e0e0e0"></ellipse><polygon points="411.92 252.68 425.76 260.67 429.22 258.67 415.38 250.68 411.92 252.68" style="fill:#455a64"></polygon><polygon points="425.76 260.67 424.04 263.67 427.5 261.68 429.22 258.67 425.76 260.67" style="fill:#37474f"></polygon><path d="M425.77,264.67a3.83,3.83,0,0,0,3.46,0,1.06,1.06,0,0,0,0-2l-1.73-1-3.46,2Z" style="fill:#455a64"></path><path d="M411.85,256.64a1.06,1.06,0,0,1,0-2,3.83,3.83,0,0,1,3.46,0l1.73,1-3.46,2Z" style="fill:#455a64"></path><ellipse cx="413.28" cy="255.47" rx="0.81" ry="0.47" style="fill:#e0e0e0"></ellipse><polygon points="411.92 252.68 413.58 257.64 417.04 255.64 411.92 252.68" style="fill:#263238"></polygon><path d="M426.84,263.28a.35.35,0,0,0,0,.66,1.27,1.27,0,0,0,1.14,0,.35.35,0,0,0,0-.66A1.27,1.27,0,0,0,426.84,263.28Z" style="fill:#e0e0e0"></path><path d="M252.65,161.38A1.61,1.61,0,0,0,251,163a.81.81,0,0,0,.47.66,2.54,2.54,0,0,0,2.28,0,.81.81,0,0,0,.47-.66A1.61,1.61,0,0,0,252.65,161.38Z" style="fill:#455a64"></path><path d="M224.51,169.54a1.61,1.61,0,0,0-.95,2.07.81.81,0,0,0,.67.45,2.51,2.51,0,0,0,2.13-.8.78.78,0,0,0,.21-.78A1.6,1.6,0,0,0,224.51,169.54Z" style="fill:#455a64"></path><path d="M256.29,151.49a1.61,1.61,0,0,0-1.83,1.34.78.78,0,0,0,.36.72,2.51,2.51,0,0,0,2.25.35.79.79,0,0,0,.56-.57A1.61,1.61,0,0,0,256.29,151.49Z" style="fill:#455a64"></path><path d="M281,161.61a1.61,1.61,0,0,0-2.13.8.8.8,0,0,0,.16.79,2.51,2.51,0,0,0,2.07.94.81.81,0,0,0,.7-.41A1.61,1.61,0,0,0,281,161.61Z" style="fill:#455a64"></path><circle cx="242.34" cy="184.75" r="1.6" style="fill:#455a64"></circle><path d="M225.19,171.18l-.32-.84q1.31-.5,2.94-1.17c5.84-2.35,14.65-5.92,24.8-6.85,11.89-1.1,27.67,0,27.83,0l-.06.9c-.16,0-15.86-1.09-27.69,0-10,.92-18.76,4.45-24.54,6.79C227.05,170.45,226.06,170.85,225.19,171.18Z" style="fill:#455a64"></path><path d="M242.77,184.87l-.86-.25c0-.12,3.54-12.36,10.33-22a70.24,70.24,0,0,1,3.53-10l.82.37a69.07,69.07,0,0,0-3.5,9.92L253,163C246.29,172.59,242.81,184.75,242.77,184.87Z" style="fill:#455a64"></path><circle cx="304.63" cy="232.7" r="1.6" style="fill:#455a64"></circle><circle cx="318.48" cy="238.03" r="1.6" style="fill:#455a64"></circle><circle cx="332.32" cy="243.36" r="1.6" style="fill:#455a64"></circle><circle cx="346.17" cy="248.69" r="1.6" style="fill:#455a64"></circle><path d="M355,203.32a1.62,1.62,0,0,0-2.25.35.8.8,0,0,0,0,.81,2.51,2.51,0,0,0,1.83,1.34.79.79,0,0,0,.77-.26A1.61,1.61,0,0,0,355,203.32Z" style="fill:#455a64"></path><path d="M365.05,210.22a1.59,1.59,0,0,0-2.24.35.79.79,0,0,0,0,.81,2.49,2.49,0,0,0,1.84,1.33.79.79,0,0,0,.76-.25A1.59,1.59,0,0,0,365.05,210.22Z" style="fill:#455a64"></path><path d="M385.36,225.61a1.61,1.61,0,0,0-2.24.35.79.79,0,0,0,0,.81,2.53,2.53,0,0,0,1.84,1.34.79.79,0,0,0,.76-.26A1.59,1.59,0,0,0,385.36,225.61Z" style="fill:#455a64"></path><path d="M375.77,217.94a1.6,1.6,0,0,0-2.24.36.8.8,0,0,0,0,.8,2.52,2.52,0,0,0,1.84,1.34.8.8,0,0,0,.77-.25A1.61,1.61,0,0,0,375.77,217.94Z" style="fill:#455a64"></path><path d="M346.17,249.14a.44.44,0,0,1-.27-.09.45.45,0,0,1-.15-.54c2-4.7,7.78-14,15.72-21.27-16.41,4.45-28.66,16.27-28.83,16.44a.46.46,0,0,1-.6,0,.46.46,0,0,1-.1-.6,116,116,0,0,1,18.64-21.36c-9,2.75-18.61,8-31.85,16.66a.46.46,0,0,1-.63-.63,135.4,135.4,0,0,1,20.41-23.09c-18.12,6.11-33.37,18.19-33.59,18.36a.45.45,0,0,1-.62-.65c.16-.17,16-17.26,27.8-24.07s22-4.37,22.15-4.35a.47.47,0,0,1,.34.39.44.44,0,0,1-.25.45,65.07,65.07,0,0,0-11.89,7.73c7.16-2,14.61-2.88,21.67-1.68a.45.45,0,0,1,.36.35.43.43,0,0,1-.18.46c-.09.07-4.45,3.11-10.28,8.19A66.49,66.49,0,0,1,375,218.59a.46.46,0,0,1,.41.39.44.44,0,0,1-.28.48,38.75,38.75,0,0,0-10.28,6.08,41.39,41.39,0,0,1,19.83.74.44.44,0,0,1,.32.48.46.46,0,0,1-.43.4c-.07,0-7.72.36-13.91,3.93-9.22,5.33-24,17.82-24.16,17.94A.48.48,0,0,1,346.17,249.14Zm17.16-22.37a71.93,71.93,0,0,0-15.9,20.28c4.07-3.36,15.22-12.4,22.74-16.74a33.45,33.45,0,0,1,11.79-3.8A41.71,41.71,0,0,0,363.33,226.77Zm-10.79-5.59a122.81,122.81,0,0,0-17.83,19.48C339.46,236.72,350,229,362.92,226A43,43,0,0,1,373,219.36,62.26,62.26,0,0,0,352.54,221.18ZM340.7,214a132.57,132.57,0,0,0-20.5,22.39c13.18-8.53,22.76-13.52,31.92-16,4.93-4.41,9-7.5,10.77-8.77C355.63,210.59,348,211.76,340.7,214Zm8.67-9.56a33.69,33.69,0,0,0-16.82,4.69c-8.27,4.78-18.6,14.7-24,20.14,6.14-4.28,18.25-11.92,31.67-16.06a71.22,71.22,0,0,1,12.48-8.56A26.8,26.8,0,0,0,349.37,204.42Z" style="fill:#455a64"></path></g><g id="freepik--character--inject-4"><path d="M320.32,198.39c-1.15,3.36-4.29,5.82-7,7.38-5.48,3.17-12.71,4.84-20.9,4.84-9.86,0-20.18-2.55-27.6-6.84-.26-.14-.5-.29-.74-.44-.7-4.19.27-9.36.9-15.06,0,0,24.9-4,38.18,1A70.11,70.11,0,0,1,320.32,198.39Z" style="fill:#f28f8f"></path><path d="M264.09,188c-.66,6-1.08,12.23.11,15.92a11.69,11.69,0,0,1,7.7-5.81c8.07-1.89,18.3,5.32,18.3,5.32l7.74,4.22c5.84-2.39,5.21-18.36,5.21-18.36C289.88,184.29,264.09,188,264.09,188Z" style="fill:#455a64"></path><path d="M368.63,163.06h0c7.82-2.41,15.56-3.83,22.51-8.14l4.21-2.61a16.79,16.79,0,0,0,8-14.18,29.23,29.23,0,0,0-.26-4,19.81,19.81,0,0,0-1.32-5.08,4.2,4.2,0,0,0-6.67-1.49l-3.61,3.24c-8.82,7.89-16.49,18.69-23.41,28.29Z" style="fill:#A3D2CA"></path><path d="M368.63,163.06h0c7.82-2.41,15.56-3.83,22.51-8.14l4.21-2.61a16.79,16.79,0,0,0,8-14.18,29.23,29.23,0,0,0-.26-4,19.81,19.81,0,0,0-1.32-5.08,4.2,4.2,0,0,0-6.67-1.49l-3.61,3.24c-8.82,7.89-16.49,18.69-23.41,28.29Z" style="opacity:0.15"></path><path d="M368.09,159.1s18.79-15.11,19.26-12.75-18.72,16.71-18.72,16.71Z" style="opacity:0.2"></path><path d="M370.21,161.83a3.81,3.81,0,0,0-2.12-2.73,1.22,1.22,0,0,0-1.23,0l-.8.63a1.18,1.18,0,0,0-.35,1.17,3.83,3.83,0,0,0,2.12,2.74,1.2,1.2,0,0,0,1.22-.05l.81-.62A1.22,1.22,0,0,0,370.21,161.83Z" style="fill:#455a64"></path><path d="M367.83,163.68c1,.41,1.73-.13,1.58-1.23a3.83,3.83,0,0,0-2.12-2.73c-1-.42-1.73.13-1.58,1.22A3.83,3.83,0,0,0,367.83,163.68Z" style="fill:#37474f"></path><path d="M368.36,162a1.68,1.68,0,0,0-.93-1.2.54.54,0,0,0-.53,0L243.74,256.36a.52.52,0,0,0-.15.51,1.68,1.68,0,0,0,.92,1.2.56.56,0,0,0,.54,0L368.2,162.53A.53.53,0,0,0,368.36,162Z" style="fill:#455a64"></path><path d="M244.51,258.07c.45.18.76-.06.69-.54a1.65,1.65,0,0,0-.92-1.19c-.45-.18-.76.06-.69.53A1.68,1.68,0,0,0,244.51,258.07Z" style="fill:#37474f"></path><path d="M246.76,257.54a3.81,3.81,0,0,0-2.12-2.73,1.2,1.2,0,0,0-1.22,0l-.81.62a1.2,1.2,0,0,0-.35,1.18,3.85,3.85,0,0,0,2.12,2.74,1.22,1.22,0,0,0,1.22-.05l.81-.63A1.18,1.18,0,0,0,246.76,257.54Z" style="fill:#455a64"></path><path d="M244.38,259.39c1,.41,1.73-.14,1.58-1.23a3.81,3.81,0,0,0-2.12-2.73c-1-.42-1.73.13-1.58,1.22A3.85,3.85,0,0,0,244.38,259.39Z" style="fill:#37474f"></path><path d="M244.38,259.39h0c-6.91,9-13.52,18.73-20.2,25l-4.05,3.79c-4.73,4.44-8.54,4.43-10-.23a22.05,22.05,0,0,1-.78-3.59,29.57,29.57,0,0,1-.19-5.95c.24-3.71,2.81-9.1,5-10.56l3.72-2.45c9.08-6,18-8,25.92-10Z" style="fill:#A3D2CA"></path><path d="M244.38,259.39h0c-6.91,9-13.52,18.73-20.2,25l-4.05,3.79c-4.73,4.44-8.54,4.43-10-.23a22.05,22.05,0,0,1-.78-3.59,29.57,29.57,0,0,1-.19-5.95c.24-3.71,2.81-9.1,5-10.56l3.72-2.45c9.08-6,18-8,25.92-10Z" style="opacity:0.15"></path><path d="M243.84,255.44s-18.93,14.15-18.72,16.7,19.26-12.75,19.26-12.75Z" style="opacity:0.2"></path><path d="M343.11,187.79c-2.07-1.55-6-4.66-6.94-5.43s-4.77-1.79-7.1-2.21l-21-6.63s-4.47-18.92-5.64-23c-1.28-4.49-4.74-7.13-10.31-6.3l-.4,17.07s3.66,12.09,5.36,16.56c1.53,4,3.93,5.26,6.6,5.67,2.13.31,17.55,3.22,17.55,3.22a24.14,24.14,0,0,1,5.75,2.18,16.22,16.22,0,0,0,5.13,1.22,37.29,37.29,0,0,0,4.29,1.9c3.39,1.07,5.74.78,7.33.18C346.52,191.13,344.4,188.76,343.11,187.79Z" style="fill:#ffa8a7"></path><path d="M282.45,144.94a99.8,99.8,0,0,0-12.6,3.46,29.92,29.92,0,0,0-5.65,13.51c-1.52,10.92-.87,18.59-.87,30.21,1.95,2.74,13.08,9.43,24.78,6.61,12.3-2.95,15-9.43,15-9.43s-.22-22.59-2-31.17c-2.08-10.15-9-13.95-9-13.95Z" style="fill:#A3D2CA"></path><path d="M302.81,176.62c-.09-2-.19-4.16-.32-6.25-3.32,6.23-14.73,9.39-25.24,8.38-9-.86-12.58-4.08-14-6.39-.08,2.09-.1,4.14-.09,6.23,2.34,2.26,6.64,4.9,14.13,5.26C289.6,184.45,298.7,181.56,302.81,176.62Z" style="fill:#fafafa"></path><path d="M303.1,186.28c0-1.54-.08-3.56-.15-5.85-3.93,5.77-15.35,9.76-25.7,8.33-8.11-1.13-12.19-3.78-14-5.91,0,2,.06,4.08.08,6.3,1.89,1.87,5.89,4.31,14,4.71C289.88,194.47,299.14,191.43,303.1,186.28Z" style="fill:#fafafa"></path><path d="M296.16,195.74c-.06-3.19-.24-9.39-.73-17.66-.74-12.32-3.69-18.74-3.69-18.74,2.19,7.54,3.06,20.84,2.59,37.3C295,196.35,295.59,196.05,296.16,195.74Z" style="opacity:0.1"></path><path d="M287.64,139.92c.82-1.1,1.66-2.17,2.54-3.21s1.45-1.83,2.18-2.76c1.64-2,3.45-4,5.13-6l2.16-3.34c2.54-4.69,2.22-9.06-.2-12.13a9.88,9.88,0,0,0-8.87-3.59,10.88,10.88,0,0,0-5.09-1.78c-3.56-.52-11.49,1.17-15.07,6.6a17.82,17.82,0,0,0-2.35,12.54c1.61,8.42,7.71,8.3,9.13,15a16.81,16.81,0,0,0,3.14.86l2.84.11c.69,0,1.56.39,2.21.18.87-.28,1.51-1.43,2-2.11A3.55,3.55,0,0,1,287.64,139.92Z" style="fill:#37474f"></path><path d="M274.71,135.06c-8.72,5-8.31-5.15-17.92-5.84s-11.93,7.19-11.51,9.16c0,0,3.43-4.8,9.05-2.74a5.63,5.63,0,0,0-4.33,3.43,8.73,8.73,0,0,1,4.85-.8A12,12,0,0,1,260,140.2c5.36,3.2,13.47,4.57,16.65-3.37Z" style="fill:#37474f"></path><path d="M300.11,128.13c.27,9.14-3.49,11.52-4.85,12.35-1.75,1.06-3.61.83-6.21.55l0,3.45s3.78,9.94,2.67,14.86a28.13,28.13,0,0,1-14.46-12.46l-.18-13.41a3.33,3.33,0,0,1-3.87-.48c-2.27-2.25-2.51-5.18-.9-7.09a3.59,3.59,0,0,1,5.47.61l0,3.19c1.66,0,2.19-.71,2.18-2.37V126a6.6,6.6,0,0,0,2.34-3.88,9.22,9.22,0,0,0,0-4.64c4.61,4.28,12.81-.51,15.61,1.46C299.73,120.1,300,123.16,300.11,128.13Z" style="fill:#ffa8a7"></path><path d="M288.76,126.94a1.14,1.14,0,1,1-2.28.18,1.15,1.15,0,0,1,1-1.27A1.18,1.18,0,0,1,288.76,126.94Z" style="fill:#263238"></path><path d="M289,134.06l3.46,1a1.77,1.77,0,0,1-2.19,1.31A1.88,1.88,0,0,1,289,134.06Z" style="fill:#b16668"></path><path d="M291,136.39a1.79,1.79,0,0,0-2-1.5,1.87,1.87,0,0,0,1.29,1.46A1.65,1.65,0,0,0,291,136.39Z" style="fill:#f28f8f"></path><path d="M298.47,123l-2.6-.93a1.33,1.33,0,0,1,1.72-.87A1.45,1.45,0,0,1,298.47,123Z" style="fill:#263238"></path><path d="M287.06,123.28l-2.36,1.45a1.33,1.33,0,0,1,.41-1.89A1.45,1.45,0,0,1,287.06,123.28Z" style="fill:#263238"></path><path d="M297.87,125.86a1.12,1.12,0,1,1-1.22-1.08A1.15,1.15,0,0,1,297.87,125.86Z" style="fill:#263238"></path><polygon points="291.45 125.32 292.25 132.17 295.84 130.67 291.45 125.32" style="fill:#f28f8f"></polygon><path d="M289.05,141c-3.7-.77-8.12-1.79-9.75-5.17a7.64,7.64,0,0,0,2.24,4c1.78,1.51,7.52,2.83,7.52,2.83Z" style="fill:#f28f8f"></path><path d="M309,214.55c-1.69-2-4.84-5.86-5.59-6.82s-4.26-2.79-6.44-3.71c-3.32-1.41-15.82-18.05-15.82-18.05l-3.48-19.08c1.1-8.29-2.79-16.22-6.61-18.91-5.82,1.68-8.26,4.92-7.58,14.08.36,4.85,3.29,19.11,4.8,24.69,1.19,4.35.93,5.45,5.48,9.21,4.77,3.94,11.49,9.56,14.82,11.8,2.42,1.62,3.06,3.12,4.46,4.31a16.2,16.2,0,0,0,4.73,2.32,37.64,37.64,0,0,0,3.77,2.8c3.07,1.78,5.43,2,7.11,1.78C311.57,218.56,310,215.78,309,214.55Z" style="fill:#ffa8a7"></path><path d="M302.27,116.79c-.33-4.47-6.77-18-21.4-13.07S266,120,266.59,124a18.42,18.42,0,0,0,4.7,9.84S270,123,282,116.49,300.15,113.52,302.27,116.79Z" style="fill:#A3D2CA"></path><path d="M272.41,118.26c-3.23-.65-2.49-5.44-.69-9.24a17.47,17.47,0,0,0-5.13,15,18.42,18.42,0,0,0,4.7,9.84S270,123,282,116.49a27,27,0,0,1,10.73-3.61C282.56,110.12,275.14,118.81,272.41,118.26Z" style="opacity:0.1"></path><path d="M272.84,134.5c-.77-1.95-.72-11.16,11.34-17.52,13-6.85,17.14-.11,17.14-.11a9.81,9.81,0,0,1,.05,2.28,2.49,2.49,0,0,0,.69-3.1c-.89-1.94-5.74-7.82-18.52-1.24s-13.1,15-12.93,17.29C270.72,133.49,271.56,134.57,272.84,134.5Z" style="fill:#455a64"></path><path d="M268.16,121.39a8.56,8.56,0,0,0,1.28,2.34c.42.57,1.06.55,1.34,0a2,2,0,0,0-.32-1.92,7.77,7.77,0,0,1-1-2.33c-.18-.68-.54-.83-.9-.3A2.76,2.76,0,0,0,268.16,121.39Z" style="fill:#37474f"></path><path d="M270.26,118.76a8.56,8.56,0,0,0,1.28,2.34c.42.57,1.06.55,1.34,0a2,2,0,0,0-.32-1.92,7.89,7.89,0,0,1-1-2.33c-.18-.68-.54-.83-.9-.31A2.79,2.79,0,0,0,270.26,118.76Z" style="fill:#37474f"></path><path d="M272.64,116.13a8.79,8.79,0,0,0,1.29,2.34c.42.56,1.05.55,1.34,0a2,2,0,0,0-.32-1.92,7.64,7.64,0,0,1-1-2.33c-.19-.68-.54-.83-.9-.31A2.83,2.83,0,0,0,272.64,116.13Z" style="fill:#37474f"></path><path d="M291.42,141.24h0a23.13,23.13,0,0,1-2.33,0c-7.15-.27-10.57-4-10.57-4a6.9,6.9,0,0,1-1.34-.57,22.44,22.44,0,0,1-4.55-3.59,5.91,5.91,0,0,1,0-.94,6,6,0,0,0,.67.77,3,3,0,0,0,2.61.87c.49.38.92.67,1.27.89a6.06,6.06,0,0,0,.9.48,28.65,28.65,0,0,1-1.53-9.9c0-1.57.14-2.56.14-2.56a22.18,22.18,0,0,1,1.87-1.89,42.41,42.41,0,0,0,0,8.77,19.16,19.16,0,0,0,1.54,6.21C283,140.39,290.9,141.19,291.42,141.24Z" style="fill:#263238"></path></g></g></g><g id="freepik--character-1--inject-4"><path d="M339.72,429h0s-90.43-64.79-133.29-86.32c-49.67-25-131.64-47-132.69-47.3h0C86.43,334.72,119.42,370.92,188,401.81c57.35,23.62,130.13,31.82,151.77,27.2Z" style="opacity:0.05"></path><g id="freepik--character--inject-4"><g id="freepik--canoe--inject-4"><path d="M336.92,405.43,79.12,256.59s81.29,27,129.75,54.93C250.4,335.5,336.92,405.43,336.92,405.43Z" style="fill:#A3D2CA"></path><path d="M336.92,405.43,79.12,256.59s81.29,27,129.75,54.93C250.4,335.5,336.92,405.43,336.92,405.43Z" style="fill:#fff;opacity:0.35000000000000003"></path><path d="M336.92,405.43a45.65,45.65,0,0,1-31.15,12.16c-19.51,0-76.14-10.16-152.28-54.12-38.07-22-69.22-59.94-74.37-106.88Z" style="fill:#A3D2CA"></path><path d="M336.92,405.43c-21.88,3.36-94.05-9.05-149.94-36,0,0,6.38-3,16.74-1s36.85,18,75.08,27.36C318.6,405.59,336.92,405.43,336.92,405.43Z" style="fill:#fff;opacity:0.4"></path><path d="M153.49,363.47c76.14,44,132.77,54.12,152.28,54.12a45.65,45.65,0,0,0,31.15-12.16c-21.88,3.36-94.05-9.05-149.94-36C120.34,334.66,89.5,296.59,79.12,256.59,84.27,303.53,115.42,341.49,153.49,363.47Z" style="opacity:0.1"></path><path d="M201.94,309.52c-14.33-8.27-37.57-10.27-51.91-2-6.29,3.63-9.15,8.25-9.17,13,0,.69,0,3.36,0,4,0,6.07,4.59,12.33,12.63,17,14.34,8.28,37.58,10.28,51.92,2,6.32-3.65,9.18-8.31,9.17-13.08,0-.66,0-3.28,0-3.94C214.59,320.42,210,314.16,201.94,309.52Z" style="fill:#A3D2CA"></path><path d="M201.94,309.52c-14.33-8.27-37.57-10.27-51.91-2-6.29,3.63-9.15,8.25-9.17,13,0,.69,0,3.36,0,4,0,6.07,4.59,12.33,12.63,17,14.34,8.28,37.58,10.28,51.92,2,6.32-3.65,9.18-8.31,9.17-13.08,0-.66,0-3.28,0-3.94C214.59,320.42,210,314.16,201.94,309.52Z" style="opacity:0.15"></path><path d="M150,307.53c-14.33,8.27-10.87,21.69,3.46,30s37.58,10.27,51.92,2,10.87-21.7-3.47-30S164.37,299.25,150,307.53Z" style="fill:#A3D2CA"></path><path d="M150,307.53c-14.33,8.27-10.87,21.69,3.46,30s37.58,10.27,51.92,2,10.87-21.7-3.47-30S164.37,299.25,150,307.53Z" style="fill:#fff;opacity:0.55"></path><path d="M182.8,341.39c-9.87,0-20.19-2.56-27.6-6.84-6.85-4-10.94-9.18-10.94-14s4.07-8.13,7.48-10.1c5.48-3.17,12.71-4.84,20.9-4.84,9.86,0,20.18,2.55,27.6,6.83,6.85,4,10.93,9.18,10.93,14s-4.06,8.14-7.47,10.1c-5.48,3.17-12.71,4.85-20.9,4.85Z" style="fill:#A3D2CA"></path><path d="M182.8,341.39c-9.87,0-20.19-2.56-27.6-6.84-6.85-4-10.94-9.18-10.94-14s4.07-8.13,7.48-10.1c5.48-3.17,12.71-4.84,20.9-4.84,9.86,0,20.18,2.55,27.6,6.83,6.85,4,10.93,9.18,10.93,14s-4.06,8.14-7.47,10.1c-5.48,3.17-12.71,4.85-20.9,4.85Z" style="opacity:0.25"></path><path d="M209.82,331v.09a17.48,17.48,0,0,1-6.12,5.5c-5.49,3.16-12.71,4.83-20.9,4.83-9.87,0-20.18-2.55-27.6-6.84-5.22-3-8.83-6.76-10.26-10.49V324c-.07-.18-.14-.35-.2-.52-3.74-10.24,1.83-17.55,12.21-22a24.13,24.13,0,0,1,12.81-2,17.48,17.48,0,0,1,11.69,6.11c4.34,5.24,6,10.32,10.11,13.87C198.5,325.44,206.21,326,209.82,331Z" style="fill:#37474f"></path><path d="M162.09,301.53c4.3-1.46,11.07-1.47,14.82.31a19.13,19.13,0,0,0-7.16-2.31,24.11,24.11,0,0,0-12.8,2c-10.38,4.4-15.95,11.71-12.21,22,.06.17.13.34.2.52v.05a15.55,15.55,0,0,0,2.59,4.27c-.09-.2-3.39-8.25-1.09-14.8C148.63,307.28,157.74,303,162.09,301.53Z" style="fill:#455a64"></path><path d="M135.62,281c0-2.92-2.53-6-6.63-8.33-7-4-18.79-5-24.62-1.52a6.67,6.67,0,0,0-3.61,5.79c0,.29,0,1.32,0,1.55,0,3.06,2.19,6.38,6.24,8.71,7,4,17.44,5.17,24.44,1.12,2.92-1.68,4.2-3.71,4.19-5.79C135.65,282.26,135.62,281.24,135.62,281Z" style="fill:#37474f"></path><path d="M104.37,271.17c-5.83,3.48-4.39,10.46,2.62,14.5s17.43,5.17,24.44,1.12,4.56-10.06-2.44-14.1S110.2,267.7,104.37,271.17Z" style="fill:#455a64"></path><polygon points="84.82 257.89 98.66 265.88 102.12 263.88 88.28 255.89 84.82 257.89" style="fill:#455a64"></polygon><polygon points="98.66 265.88 96.94 268.88 100.4 266.88 102.12 263.88 98.66 265.88" style="fill:#37474f"></polygon><path d="M98.67,269.88a3.83,3.83,0,0,0,3.46,0,1.05,1.05,0,0,0,0-2l-1.73-1-3.46,2Z" style="fill:#455a64"></path><path d="M84.76,261.85a1.05,1.05,0,0,1,0-2,3.83,3.83,0,0,1,3.46,0l1.73,1-3.46,2Z" style="fill:#455a64"></path><ellipse cx="86.19" cy="260.67" rx="0.81" ry="0.47" style="fill:#e0e0e0"></ellipse><polygon points="84.82 257.89 86.49 262.85 89.95 260.85 84.82 257.89" style="fill:#263238"></polygon><path d="M99.74,268.49c-.31.18-.31.47,0,.66a1.27,1.27,0,0,0,1.14,0c.32-.19.32-.48,0-.66A1.27,1.27,0,0,0,99.74,268.49Z" style="fill:#e0e0e0"></path><polygon points="302.3 383.45 316.15 391.44 319.61 389.44 305.76 381.45 302.3 383.45" style="fill:#455a64"></polygon><polygon points="316.15 391.44 314.42 394.44 317.88 392.45 319.61 389.44 316.15 391.44" style="fill:#37474f"></polygon><path d="M316.15,395.44a3.77,3.77,0,0,0,3.46,0,1,1,0,0,0,0-2l-1.73-1-3.46,2Z" style="fill:#455a64"></path><path d="M302.24,387.41a1.05,1.05,0,0,1,0-2,3.83,3.83,0,0,1,3.46,0l1.73,1-3.46,2Z" style="fill:#455a64"></path><ellipse cx="303.67" cy="386.24" rx="0.81" ry="0.47" style="fill:#e0e0e0"></ellipse><polygon points="302.3 383.45 303.97 388.41 307.43 386.41 302.3 383.45" style="fill:#263238"></polygon><ellipse cx="317.8" cy="394.38" rx="0.81" ry="0.47" style="fill:#e0e0e0"></ellipse><path d="M143,292.15a1.6,1.6,0,0,0-1.61,1.6.81.81,0,0,0,.47.66,2.52,2.52,0,0,0,2.27,0,.79.79,0,0,0,.47-.66A1.6,1.6,0,0,0,143,292.15Z" style="fill:#455a64"></path><path d="M114.89,300.31a1.61,1.61,0,0,0-.94,2.07.79.79,0,0,0,.67.45,2.52,2.52,0,0,0,2.13-.8.79.79,0,0,0,.21-.77A1.6,1.6,0,0,0,114.89,300.31Z" style="fill:#455a64"></path><path d="M146.68,282.26a1.61,1.61,0,0,0-1.83,1.34.78.78,0,0,0,.36.72,2.49,2.49,0,0,0,2.24.35.81.81,0,0,0,.57-.57A1.61,1.61,0,0,0,146.68,282.26Z" style="fill:#455a64"></path><path d="M171.36,292.38a1.6,1.6,0,0,0-2.12.8.78.78,0,0,0,.16.79,2.49,2.49,0,0,0,2.06.94.78.78,0,0,0,.7-.41A1.6,1.6,0,0,0,171.36,292.38Z" style="fill:#455a64"></path><circle cx="132.73" cy="315.52" r="1.6" style="fill:#455a64"></circle><path d="M115.58,302l-.32-.84c.86-.33,1.85-.72,2.94-1.17,5.83-2.35,14.65-5.91,24.8-6.85,11.9-1.09,27.67,0,27.83,0l-.07.9c-.15,0-15.85-1.09-27.68,0-10,.92-18.76,4.45-24.54,6.79C117.44,301.22,116.45,301.62,115.58,302Z" style="fill:#455a64"></path><path d="M133.16,315.64l-.87-.24c0-.13,3.55-12.37,10.33-22a70.33,70.33,0,0,1,3.54-10l.82.37a70.15,70.15,0,0,0-3.51,9.92l-.06.15C136.68,303.36,133.19,315.52,133.16,315.64Z" style="fill:#455a64"></path><circle cx="195.02" cy="363.47" r="1.6" style="fill:#455a64"></circle><circle cx="208.87" cy="368.8" r="1.6" style="fill:#455a64"></circle><circle cx="222.71" cy="374.13" r="1.6" style="fill:#455a64"></circle><circle cx="236.55" cy="379.46" r="1.6" style="fill:#455a64"></circle><path d="M245.37,334.09a1.61,1.61,0,0,0-2.24.35.82.82,0,0,0,0,.81,2.55,2.55,0,0,0,1.84,1.34.8.8,0,0,0,.77-.25A1.61,1.61,0,0,0,245.37,334.09Z" style="fill:#455a64"></path><path d="M255.44,341a1.6,1.6,0,0,0-2.25.35.8.8,0,0,0,0,.81,2.47,2.47,0,0,0,1.83,1.33.8.8,0,0,0,.77-.25A1.6,1.6,0,0,0,255.44,341Z" style="fill:#455a64"></path><path d="M275.75,356.38a1.62,1.62,0,0,0-2.25.35.8.8,0,0,0,0,.81,2.51,2.51,0,0,0,1.83,1.34.79.79,0,0,0,.77-.26A1.61,1.61,0,0,0,275.75,356.38Z" style="fill:#455a64"></path><path d="M266.16,348.71a1.6,1.6,0,0,0-2.24.36.78.78,0,0,0,0,.8,2.5,2.5,0,0,0,1.84,1.34.8.8,0,0,0,.77-.25A1.61,1.61,0,0,0,266.16,348.71Z" style="fill:#455a64"></path><path d="M236.55,379.91a.43.43,0,0,1-.26-.09.45.45,0,0,1-.15-.54c2-4.7,7.78-14,15.72-21.27-16.41,4.45-28.66,16.27-28.84,16.44a.46.46,0,0,1-.6,0,.47.47,0,0,1-.09-.6A116,116,0,0,1,241,352.52c-9,2.75-18.61,8-31.86,16.66a.45.45,0,0,1-.62-.63,135.82,135.82,0,0,1,20.41-23.09c-18.12,6.11-33.37,18.19-33.6,18.36a.45.45,0,0,1-.61-.65c.16-.17,16-17.26,27.79-24.06s22.05-4.38,22.16-4.36a.46.46,0,0,1,.33.39.44.44,0,0,1-.25.45,66.3,66.3,0,0,0-11.89,7.73c7.16-2,14.62-2.88,21.68-1.68a.45.45,0,0,1,.36.35.45.45,0,0,1-.18.47,129.62,129.62,0,0,0-10.28,8.18,66.47,66.47,0,0,1,20.94-1.28.46.46,0,0,1,.41.39.44.44,0,0,1-.29.48,38.7,38.7,0,0,0-10.27,6.08,41.4,41.4,0,0,1,19.83.74.45.45,0,0,1-.11.88c-.08,0-7.72.36-13.92,3.93-9.21,5.33-24,17.82-24.16,17.94A.44.44,0,0,1,236.55,379.91Zm17.17-22.37a71.88,71.88,0,0,0-15.9,20.28c4.06-3.36,15.22-12.4,22.73-16.73a33.42,33.42,0,0,1,11.79-3.81A41.67,41.67,0,0,0,253.72,357.54ZM242.93,352a122.81,122.81,0,0,0-17.83,19.48c4.75-3.94,15.33-11.67,28.21-14.71a42.83,42.83,0,0,1,10.07-6.59A62.23,62.23,0,0,0,242.93,352Zm-11.84-7.2a133.19,133.19,0,0,0-20.51,22.39c13.19-8.53,22.77-13.52,31.92-16,4.93-4.41,9-7.5,10.77-8.77C246,341.36,238.36,342.53,231.09,344.75Zm8.67-9.56a33.74,33.74,0,0,0-16.83,4.69c-8.26,4.78-18.59,14.7-24,20.14,6.14-4.27,18.25-11.92,31.67-16.06a71.22,71.22,0,0,1,12.48-8.56A26.8,26.8,0,0,0,239.76,335.19Z" style="fill:#455a64"></path></g><g id="freepik--character--inject-4"><path d="M210.76,329c-1.12,3.43-4.3,5.92-7.06,7.51-5.48,3.17-12.71,4.84-20.9,4.84-9.87,0-20.19-2.55-27.6-6.83l-1.2-.72a121.94,121.94,0,0,1-.54-15.49s26.44-3.57,40.06,1.56Z" style="fill:#455a64"></path><path d="M192.15,334.94s1.52-2,1-6.57a14,14,0,0,1-4.29,7.5l6.19,4.07a37.21,37.21,0,0,0,3.57-1.08Z" style="fill:#37474f"></path><path d="M261.67,297.35h0c7.93-2,15.74-3,22.91-6.94l4.34-2.39a16.79,16.79,0,0,0,8.74-13.74,29.9,29.9,0,0,0-.05-4,20,20,0,0,0-1.05-5.14,4.2,4.2,0,0,0-6.59-1.83l-3.77,3c-9.22,7.42-17.44,17.81-24.86,27Z" style="fill:#A3D2CA"></path><path d="M261.67,297.35h0c7.93-2,15.74-3,22.91-6.94l4.34-2.39a16.79,16.79,0,0,0,8.74-13.74,29.9,29.9,0,0,0-.05-4,20,20,0,0,0-1.05-5.14,4.2,4.2,0,0,0-6.59-1.83l-3.77,3c-9.22,7.42-17.44,17.81-24.86,27Z" style="opacity:0.15"></path><path d="M261.34,293.37s19.56-14.1,19.9-11.72-19.57,15.7-19.57,15.7Z" style="opacity:0.2"></path><path d="M263.31,296.21a3.81,3.81,0,0,0-2-2.84,1.25,1.25,0,0,0-1.23,0l-.83.58a1.23,1.23,0,0,0-.42,1.16,3.84,3.84,0,0,0,2,2.84,1.23,1.23,0,0,0,1.22,0l.85-.58A1.23,1.23,0,0,0,263.31,296.21Z" style="fill:#455a64"></path><path d="M260.84,297.93c1,.47,1.73,0,1.64-1.14a3.83,3.83,0,0,0-2-2.84c-1-.47-1.74,0-1.65,1.14A3.84,3.84,0,0,0,260.84,297.93Z" style="fill:#37474f"></path><path d="M261.45,296.3a1.65,1.65,0,0,0-.86-1.24.5.5,0,0,0-.53,0L132.06,384a.54.54,0,0,0-.18.51,1.68,1.68,0,0,0,.87,1.24.52.52,0,0,0,.53,0l128-88.93A.52.52,0,0,0,261.45,296.3Z" style="fill:#455a64"></path><path d="M132.75,385.73c.43.2.75,0,.71-.5a1.65,1.65,0,0,0-.86-1.24c-.44-.21-.76,0-.72.5A1.68,1.68,0,0,0,132.75,385.73Z" style="fill:#37474f"></path><path d="M135,385.32a3.82,3.82,0,0,0-2-2.84,1.18,1.18,0,0,0-1.22,0L131,383a1.18,1.18,0,0,0-.41,1.15,3.85,3.85,0,0,0,2,2.85,1.25,1.25,0,0,0,1.23,0l.84-.59A1.22,1.22,0,0,0,135,385.32Z" style="fill:#455a64"></path><path d="M132.54,387c1,.47,1.74,0,1.64-1.14a3.82,3.82,0,0,0-2-2.85c-1-.47-1.73,0-1.64,1.14A3.85,3.85,0,0,0,132.54,387Z" style="fill:#37474f"></path><path d="M132.54,387.05h0c-7.37,8.63-14.48,18-21.48,23.89l-4.25,3.58c-5,4.19-8.75,4-10-.75a23.13,23.13,0,0,1-.59-3.63,30.54,30.54,0,0,1,.12-5.95c.44-3.69,3.29-8.94,5.57-10.28l3.84-2.25c9.38-5.51,18.35-7.06,26.41-8.6Z" style="fill:#A3D2CA"></path><path d="M132.54,387.05h0c-7.37,8.63-14.48,18-21.48,23.89l-4.25,3.58c-5,4.19-8.75,4-10-.75a23.13,23.13,0,0,1-.59-3.63,30.54,30.54,0,0,1,.12-5.95c.44-3.69,3.29-8.94,5.57-10.28l3.84-2.25c9.38-5.51,18.35-7.06,26.41-8.6Z" style="opacity:0.15"></path><path d="M132.21,383.06s-19.64,13.14-19.57,15.71,19.9-11.72,19.9-11.72Z" style="opacity:0.2"></path><path d="M234.5,318.36c-2.13-1.59-4.81-4.05-5.77-4.84s-3.32-1.6-8.63-3-18.85-6-18.85-6-6.26-20.51-7.74-24.65c-1.77-5-5.57-7.13-11.29-6.28L183,290s4.73,12.06,8.73,19.66c2.51,4.77,3.19,4.78,5.93,5.22,4.41.72,19.22,3,20.89,3.85a17.58,17.58,0,0,0,5.33,1.95c1.84.32,3,1.26,4.63,1.76,3.47,1.1,5,1.07,6.63.45C238,321.79,235.82,319.36,234.5,318.36Z" style="fill:#ab7170"></path><path d="M172.28,274.42A103.7,103.7,0,0,0,159.37,278a30.74,30.74,0,0,0-5.8,13.86c-1.55,11.2-.89,19.06-.89,31,2,2.81,13.41,9.67,25.41,6.78,12.62-3,15.42-9.67,15.42-9.67s-.22-23.17-2-32c-2.14-10.41-9.27-14.31-9.27-14.31Z" style="fill:#A3D2CA"></path><path d="M193.16,306.91c-.08-2.09-.19-4.27-.32-6.41-3.4,6.38-15.11,9.62-25.88,8.59-9.19-.88-12.9-4.18-14.32-6.55-.08,2.14-.1,4.25-.1,6.39,2.4,2.31,6.82,5,14.5,5.39C179.62,314.94,189,312,193.16,306.91Z" style="fill:#fafafa"></path><path d="M193.46,316.81c0-1.57-.08-3.65-.15-6-4,5.92-15.74,10-26.35,8.54-8.32-1.15-12.5-3.87-14.37-6.06,0,2.06.06,4.19.08,6.46,1.94,1.92,6,4.43,14.37,4.83C179.91,325.21,189.4,322.09,193.46,316.81Z" style="fill:#fafafa"></path><path d="M186.35,326.51c-.07-3.26-.25-9.62-.76-18.11a74.47,74.47,0,0,0-4.85-22.3c2.25,7.73,4.21,24.46,3.73,41.34C185.14,327.14,185.77,326.83,186.35,326.51Z" style="opacity:0.1"></path><path d="M177.61,269.27c.84-1.12,1.7-2.22,2.61-3.29s1.48-1.88,2.23-2.83C184.13,261,186,259,187.71,257l2.22-3.43c2.6-4.81,2.27-9.28-.21-12.44a10.17,10.17,0,0,0-9.09-3.68,11.24,11.24,0,0,0-5.23-1.83c-3.64-.52-11.77,1.2-15.45,6.78a18.26,18.26,0,0,0-2.41,12.85c1.65,8.63,7.91,8.51,9.37,15.33a17.46,17.46,0,0,0,3.22.89l2.91.11c.7,0,1.6.4,2.27.18.88-.28,1.54-1.46,2.06-2.16Z" style="fill:#37474f"></path><path d="M190.09,257.09c-.32,9.35-3.27,11.91-4.67,12.75-1.79,1.09-3.69.85-6.37.57l0,3.53s4.14,7.18,1.66,12.16c-11.05-2.36-14.31-9.74-14.31-9.74l-.11-13.5a3.25,3.25,0,0,1-3.49-.69c-2.3-2.33-2.57-5.31-.92-7.27a3.68,3.68,0,0,1,5.61.62l0,3.27c1.7,0,2.25-.73,2.24-2.43v-1.42a6.79,6.79,0,0,0,2.4-4,9.62,9.62,0,0,0,0-4.77c7.78,3.23,12.78-3,15.66-1C189.66,246.45,190.26,252,190.09,257.09Z" style="fill:#ab7170"></path><path d="M172.82,246.43a19.42,19.42,0,0,0,5.46,2.93c3.76,1.43,6.58.31,7,0s-.76-.75-2-1.65c0,0,3.67,1.6,6.62-.19,0,0,1.23-3.67-3-3.94S172.82,246.43,172.82,246.43Z" style="fill:#37474f"></path><path d="M178.89,255.47a1.17,1.17,0,1,1-1.27-1.13A1.21,1.21,0,0,1,178.89,255.47Z" style="fill:#263238"></path><path d="M178.54,262.64l4.47,1.27a2.28,2.28,0,0,1-2.83,1.68A2.43,2.43,0,0,1,178.54,262.64Z" style="fill:#8f4a49"></path><path d="M181.12,265.65a2.31,2.31,0,0,0-2.61-1.94,2.4,2.4,0,0,0,1.67,1.88A2.33,2.33,0,0,0,181.12,265.65Z" style="fill:#f28f8f"></path><path d="M188.72,252.33l-2.67-1a1.35,1.35,0,0,1,1.76-.89A1.49,1.49,0,0,1,188.72,252.33Z" style="fill:#263238"></path><path d="M177.15,251.72l-2.43,1.48a1.36,1.36,0,0,1,.42-1.93A1.5,1.5,0,0,1,177.15,251.72Z" style="fill:#263238"></path><path d="M188.1,254.85a1.17,1.17,0,0,1-1,1.29A1.19,1.19,0,0,1,185.8,255a1.15,1.15,0,1,1,2.3-.18Z" style="fill:#263238"></path><polygon points="181.82 253.43 182.67 260.74 186.42 259.62 181.82 253.43" style="fill:#8f4a49"></polygon><path d="M179.05,270.41c-3.78-.79-8.32-1.84-10-5.3a7.87,7.87,0,0,0,2.31,4.09c1.82,1.54,7.71,2.9,7.71,2.9Z" style="fill:#8f4a49"></path><path d="M199.49,345.81c-1.72-2-4.3-6.3-5.07-7.29s-4.29-2.51-6.74-4.07c-3.12-2-19.81-14.71-19.81-14.71l-2.81-22.33c1.12-8.49-.56-17.11-4.48-19.87-6,1.72-11.32,3.72-10.62,13.1.36,5,3.65,24.48,4.62,30.33.85,5.16.73,6.64,6.74,9.84,5.6,3,20,8.77,21.5,11.29,2.59,2.49,4.12,2.08,5.75,3.16,0,0,1.63,1.29,3.37,2.86a8.51,8.51,0,0,0,7.19,2.22C202.15,349.91,200.56,347.06,199.49,345.81Z" style="fill:#ab7170"></path><path d="M192.62,245.56c-.35-4.59-7-18.45-22-13.41S155.4,248.83,156,253a18.81,18.81,0,0,0,4.83,10.08s-1.31-11.09,11-17.8S190.44,242.2,192.62,245.56Z" style="fill:#A3D2CA"></path><path d="M162,247.06c-3.31-.67-2.55-5.58-.71-9.48A18,18,0,0,0,156,253a18.81,18.81,0,0,0,4.83,10.08s-1.31-11.09,11-17.8a27.8,27.8,0,0,1,11-3.71C172.4,238.71,164.79,247.62,162,247.06Z" style="opacity:0.1"></path><path d="M162.43,263.72c-.78-2-.74-11.45,11.63-18,13.32-7,17.58-.11,17.58-.11a9.7,9.7,0,0,1,.05,2.33,2.56,2.56,0,0,0,.71-3.18c-.92-2-5.89-8-19-1.26S160,258.9,160.15,261.25C160.26,262.68,161.12,263.79,162.43,263.72Z" style="fill:#455a64"></path><path d="M157.63,250.27a8.93,8.93,0,0,0,1.32,2.4c.43.58,1.08.57,1.37,0a2.1,2.1,0,0,0-.32-2,7.61,7.61,0,0,1-1.07-2.38c-.19-.7-.56-.86-.93-.32A2.87,2.87,0,0,0,157.63,250.27Z" style="fill:#37474f"></path><path d="M159.79,247.57a8.71,8.71,0,0,0,1.31,2.4c.44.58,1.08.57,1.38,0a2.07,2.07,0,0,0-.33-2,7.73,7.73,0,0,1-1.07-2.38c-.19-.7-.55-.85-.92-.32A2.87,2.87,0,0,0,159.79,247.57Z" style="fill:#37474f"></path><path d="M162.23,244.88a9.09,9.09,0,0,0,1.32,2.4c.43.57,1.08.56,1.37,0a2.08,2.08,0,0,0-.32-2,7.92,7.92,0,0,1-1.07-2.39c-.19-.7-.55-.85-.92-.32A2.89,2.89,0,0,0,162.23,244.88Z" style="fill:#37474f"></path><path d="M181.49,270.63h0a21.67,21.67,0,0,1-2.4,0c-7.33-.27-10.83-4.06-10.83-4.06a7.07,7.07,0,0,1-1.38-.59,23.33,23.33,0,0,1-4.67-3.68,7.73,7.73,0,0,1,0-1,6.12,6.12,0,0,0,.68.78,3,3,0,0,0,2.68.89,14.47,14.47,0,0,0,1.3.92,6.32,6.32,0,0,0,.92.49,29.2,29.2,0,0,1-1.56-10.15,23.86,23.86,0,0,1,.14-2.62,19.5,19.5,0,0,1,1.92-1.94,43.12,43.12,0,0,0,0,9,19.75,19.75,0,0,0,1.57,6.37C172.84,269.76,181,270.58,181.49,270.63Z" style="fill:#263238"></path></g></g></g></svg>